<svg id="Layer_1" data-name="Layer 1" xmlns="http://www.w3.org/2000/svg" viewBox="0 0 480 480"><defs><style>.cls-1{fill:#9bc9ff;}.cls-2{fill:#1e81ce;}</style></defs><title>mobile-icon</title><g id="Mobile_application" data-name="Mobile application"><path class="cls-1" d="M160,152a16,16,0,0,1,16-16H336a16,16,0,0,1,16,16v48h48V56a32,32,0,0,0-32-32H344V56a16,16,0,0,1-16,16H184a16,16,0,0,1-16-16V24H144a32,32,0,0,0-32,32V200h48Z" transform="translate(-16 -16)"/><path class="cls-1" d="M312,392a16,16,0,0,1-16-16V328H216v48a16,16,0,0,1-16,16H112v64a32,32,0,0,0,32,32H368a32,32,0,0,0,32-32V392Z" transform="translate(-16 -16)"/><path class="cls-1" d="M400,344l50.88-50.88a24,24,0,0,0-33.92-34h0l-17,17-17-17a24,24,0,0,0-31-2.48V296Z" transform="translate(-16 -16)"/><path class="cls-1" d="M144,341.92V336a32,32,0,0,0-64,0v5.92A55.83,55.83,0,0,0,144,341.92Z" transform="translate(-16 -16)"/><path class="cls-1" d="M312.56,198.08l-22.64-22.64L272,193.36V168H240v25.36l-17.92-17.92-22.64,22.64L217.36,216H192v32h25.36l-17.92,17.92,22.64,22.64L240,270.64V296h32V270.64l17.92,17.92,22.64-22.64L294.64,248H320V216H294.64ZM256,248a16,16,0,1,1,16-16A16,16,0,0,1,256,248Z" transform="translate(-16 -16)"/><circle class="cls-1" cx="96" cy="264" r="16"/><path class="cls-2" d="M160,456a8,8,0,0,0,8,8H344a8,8,0,0,0,0-16H168A8,8,0,0,0,160,456Z" transform="translate(-16 -16)"/><path class="cls-2" d="M472,192H408V56a40.05,40.05,0,0,0-40-40H144a40.05,40.05,0,0,0-40,40V192H40a24,24,0,0,0-24,24V376a24,24,0,0,0,24,24h64v56a40.05,40.05,0,0,0,40,40H368a40.05,40.05,0,0,0,40-40V400h64a24,24,0,0,0,24-24V216A24,24,0,0,0,472,192ZM176,32H336V56a8,8,0,0,1-8,8H184a8,8,0,0,1-8-8ZM120,56a24,24,0,0,1,24-24h16V56a24,24,0,0,0,24,24H328a24,24,0,0,0,24-24V32h16a24,24,0,0,1,24,24V192H360V152a24,24,0,0,0-24-24H176a24,24,0,0,0-24,24v40H120Zm56,264a8,8,0,0,1-8-8V152a8,8,0,0,1,8-8H336a8,8,0,0,1,8,8V312a8,8,0,0,1-8,8Zm-64-32a8,8,0,1,1,8-8A8,8,0,0,1,112,288Zm16.94,31A24.14,24.14,0,0,1,136,336v1.38a48.56,48.56,0,0,1-48,0V336a24,24,0,0,1,40.94-17Zm21.29,5.9a38.81,38.81,0,0,0-23.54-26,24,24,0,1,0-29.35,0,40,40,0,0,0-23.57,26,47.91,47.91,0,1,1,76-58.36c.79,1,1.53,2.07,2.23,3.16V312a23.75,23.75,0,0,0,1.47,8,48,48,0,0,1-3.24,4.88ZM360,261.32a15.87,15.87,0,0,1,17.38,3.46l17,17a8,8,0,0,0,11.32,0l17-17a16,16,0,1,1,22.6,22.68h0L400,332.69l-40-40ZM32,376V216a8,8,0,0,1,8-8H152v38.22a63.92,63.92,0,0,0-80.24,99.52c1.17.95,2.38,1.85,3.62,2.72a63.87,63.87,0,0,0,88.87-15.66A23.76,23.76,0,0,0,176,336h32v40a8,8,0,0,1-8,8H40A8,8,0,0,1,32,376Zm360,80a24,24,0,0,1-24,24H144a24,24,0,0,1-24-24V400h80a24,24,0,0,0,24-24V336h64v40a24,24,0,0,0,24,24h80Zm88-80a8,8,0,0,1-8,8H312a8,8,0,0,1-8-8V336h32a24,24,0,0,0,23.7-21l34.64,34.65a8,8,0,0,0,11.32,0l50.88-50.88a32,32,0,0,0-45.24-45.32h0L400,264.8l-11.3-11.3a31.76,31.76,0,0,0-28.7-8.76V208H472a8,8,0,0,1,8,8Z" transform="translate(-16 -16)"/><path class="cls-2" d="M320,208H314l4.27-4.26a8,8,0,0,0,0-11.32l-22.64-22.64a8,8,0,0,0-11.32,0L280,174.05V168a8,8,0,0,0-8-8H240a8,8,0,0,0-8,8v6.05l-4.26-4.27a8,8,0,0,0-11.32,0l-22.64,22.64a8,8,0,0,0,0,11.32l4.27,4.26H192a8,8,0,0,0-8,8v32a8,8,0,0,0,8,8h6.05l-4.27,4.26a8,8,0,0,0,0,11.32l22.64,22.64a8,8,0,0,0,11.32,0L232,290V296a8,8,0,0,0,8,8h32a8,8,0,0,0,8-8V290l4.26,4.27a8,8,0,0,0,11.32,0l22.64-22.64a8,8,0,0,0,0-11.32L314,256H320a8,8,0,0,0,8-8V216A8,8,0,0,0,320,208Zm-8,32H294.64A8,8,0,0,0,289,253.66l12.27,12.26-11.33,11.33L277.66,265A8,8,0,0,0,264,270.64V288H248V270.64A8,8,0,0,0,234.34,265l-12.26,12.27-11.33-11.33L223,253.66A8,8,0,0,0,217.36,240H200V224h17.36A8,8,0,0,0,223,210.34l-12.27-12.26,11.33-11.33L234.34,199A8,8,0,0,0,248,193.36V176h16v17.36A8,8,0,0,0,277.66,199l12.26-12.27,11.33,11.33L289,210.34A8,8,0,0,0,294.64,224H312Z" transform="translate(-16 -16)"/><path class="cls-2" d="M256,208a24,24,0,1,0,24,24h0A24,24,0,0,0,256,208Zm0,32a8,8,0,1,1,8-8A8,8,0,0,1,256,240Z" transform="translate(-16 -16)"/></g></svg>