<svg viewBox="0 0 1920 1080" xmlns="http://www.w3.org/2000/svg"><g opacity=".5"><rect fill="#fff" height="484.55" rx="10" width="303.77" x="141.51" y="306.38"/><rect fill="none" height="484.55" rx="10" stroke="#e2e2e2" stroke-miterlimit="10" stroke-width="4" width="303.77" x="141.51" y="306.38"/><path d="m275.61 471.49a12.51 12.51 0 0 1 4.77.8 7.57 7.57 0 0 1 3.09 2.23 8.88 8.88 0 0 1 1.65 3.41 17.62 17.62 0 0 1 .5 4.32v1.75a16.9 16.9 0 0 1 -.53 4.35 8.94 8.94 0 0 1 -1.71 3.44 7.83 7.83 0 0 1 -3.09 2.23 14.27 14.27 0 0 1 -9.59-.06 7.75 7.75 0 0 1 -3.12-2.35 9 9 0 0 1 -1.62-3.43 18 18 0 0 1 -.47-4.18v-1.78a17.08 17.08 0 0 1 .53-4.44 8.48 8.48 0 0 1 1.74-3.38 7.89 7.89 0 0 1 3.15-2.17 12.74 12.74 0 0 1 4.7-.74zm-.05 17.81a2.79 2.79 0 0 0 2.64-1.3 8.44 8.44 0 0 0 .77-4.12v-1.48q0-3.21-.77-4.36a2.82 2.82 0 0 0 -2.53-1.14 3 3 0 0 0 -2.82 1.29 8.7 8.7 0 0 0 -.76 4.21v1.48a8.84 8.84 0 0 0 .73 4.1 2.84 2.84 0 0 0 2.74 1.32zm22.78-17.35h7.36l-22.2 39.1h-7.36zm8 16.21a12.49 12.49 0 0 1 4.77.8 7.57 7.57 0 0 1 3.09 2.23 8.82 8.82 0 0 1 1.65 3.41 17.62 17.62 0 0 1 .5 4.32v1.78a16.9 16.9 0 0 1 -.53 4.35 8.84 8.84 0 0 1 -1.71 3.44 7.82 7.82 0 0 1 -3.09 2.23 12.05 12.05 0 0 1 -4.67.81 12.32 12.32 0 0 1 -4.92-.86 7.75 7.75 0 0 1 -3.12-2.35 9 9 0 0 1 -1.62-3.43 18 18 0 0 1 -.47-4.18v-1.78a17.08 17.08 0 0 1 .53-4.44 8.58 8.58 0 0 1 1.74-3.38 8 8 0 0 1 3.15-2.17 12.78 12.78 0 0 1 4.7-.79zm-.06 17.84a2.79 2.79 0 0 0 2.64-1.32 8.44 8.44 0 0 0 .77-4.12v-1.56q0-3.21-.77-4.36a2.81 2.81 0 0 0 -2.53-1.15 3 3 0 0 0 -2.82 1.29 8.7 8.7 0 0 0 -.76 4.21v1.48a8.8 8.8 0 0 0 .73 4.09 2.83 2.83 0 0 0 2.74 1.44z" fill="#545454"/><path d="m376.94 395.43-32.69 31.8a64 64 0 0 0 -56-32.32c-1.32 0-2.62 0-3.92.12l-8.66-43.32a110.94 110.94 0 0 1 12.58-.72 109.71 109.71 0 0 1 88.69 44.44z" fill="#71b37c"/><path d="m275.59 396.15a63.74 63.74 0 0 0 -43.3 31.09l-32.69-31.8a109.13 109.13 0 0 1 67.4-42.44z" fill="#e2e2e2"/><path d="m292.6 458.86a9.71 9.71 0 0 1 -11.43-7.48 9.28 9.28 0 0 1 3.59-9.26l-9.16-46-8.6-43.12-3.84-19.25 8.66-1.63 3.89 19.57 8.64 43.31 9.06 45.45a9.4 9.4 0 0 1 -.81 18.38z" fill="#545454"/><path d="m290.2 609.23h6.39v276.02h-6.39z" fill="#e2e2e2" transform="matrix(0 -1 1 0 -453.84 1040.64)"/><path d="m155.39 582.05h5.84v168.38h-5.84z" fill="#e2e2e2"/><path d="m178.71 660.41s29.73 14.6 58.79 5.79 52.76-48.36 99.86-38.77 59 15.86 86.74 13.73v83h-245.2z" fill="#69a0ef" opacity=".4"/><path d="m178.71 660.27s29.73 14.67 58.79 5.86 53-48.33 100.11-38.74 59.25 15.9 87 13.76" fill="none" stroke="#69a0ef" stroke-miterlimit="10" stroke-width="5.04"/><rect fill="#fff" height="237.76" rx="10" width="344.33" x="1573.67" y="2"/><rect fill="none" height="237.76" rx="10" stroke="#e2e2e2" stroke-miterlimit="10" stroke-width="4" width="344.33" x="1573.67" y="2"/><path d="m1846.32 111.3-37 38.9c-12.26-23.54-36.06-39.53-63.44-39.53-1.5 0-3 .06-4.44.15a67 67 0 0 0 -9.92 1.36 69.71 69.71 0 0 0 -14.22 4.7l-26.92-43.74-1.1-1.76a117.85 117.85 0 0 1 32.49-11.94c3.23-.7 6.52-1.21 9.87-1.61a116.62 116.62 0 0 1 14.25-.88c41.37.05 78.04 21.45 100.43 54.35z" fill="#71b37c"/><path d="m1708.33 121.69a74.69 74.69 0 0 0 -25.94 28.5l-37-38.9a126.5 126.5 0 0 1 35.2-34.75l1.18 1.94z" fill="#e2e2e2"/><path d="m1717.24 116.88a67.26 67.26 0 0 0 -8.91 4.82l-26.6-43.2-1.18-1.94c2.8-1.85 5.71-3.57 8.68-5.18l1.1 1.76z" fill="#71b37c"/><path d="m1754.63 187.21a10.67 10.67 0 0 1 -15.26-3.39 12 12 0 0 1 -.26-12.12l-29.6-48.1-1.18-1.91-26.6-43.2-1.18-1.94-11.22-18.21 8.4-5.69 11.51 18.72 1.1 1.76 26.92 43.74 1 1.58 29.25 47.55a10.8 10.8 0 0 1 10.42 5.21 11.9 11.9 0 0 1 -3.3 16z" fill="#545454"/><rect fill="#fff" height="232.38" rx="10" width="306.54" x="727.02" y="673.27"/><rect fill="none" height="232.38" rx="10" stroke="#e2e2e2" stroke-miterlimit="10" stroke-width="4" width="306.54" x="727.02" y="673.27"/><path d="m878.21 702.21v36.32a46.2 46.2 0 0 0 -18.42 3.8l-13.13-33.61a79.48 79.48 0 0 1 31.55-6.51z" fill="#ba9266"/><path d="m937.82 728.66-24.82 25.34a47.3 47.3 0 0 0 -34.79-15.45v-36.34a80.44 80.44 0 0 1 52.79 19.87 88.62 88.62 0 0 1 6.82 6.58z" fill="#69a0ef"/><path d="m961.31 789.46a89.8 89.8 0 0 1 -16.26 51.86l-27.82-21.59a52.88 52.88 0 0 0 -4.23-65.73l24.82-25.32a89.26 89.26 0 0 1 23.49 60.78z" fill="#8fc899"/><path d="m945.05 841.32a84.75 84.75 0 0 1 -26.93 24.68l-16.61-31.87a50 50 0 0 0 15.73-14.41z" fill="#ffaa4b"/><path d="m918.12 866a79.81 79.81 0 0 1 -39.91 10.7c-45.91 0-83.12-39.05-83.12-87.25a92.83 92.83 0 0 1 1.15-14.55l34.15 6.1a51 51 0 0 0 -.68 8.48c0 28.12 21.73 50.93 48.51 50.93a46.44 46.44 0 0 0 23.29-6.25z" fill="#e7616a"/><path d="m859.79 742.32c-15.27 6.58-26.63 21.1-29.41 38.66l-34.15-6.07c4.81-30.09 24.27-54.92 50.43-66.2z" fill="#a96ba7"/><rect fill="#fff" height="232.38" rx="10" width="306.54" x="2" y="2"/><rect fill="none" height="232.38" rx="10" stroke="#e2e2e2" stroke-miterlimit="10" stroke-width="4" width="306.54" x="2" y="2"/><path d="m153.19 30.94v36.32a46.2 46.2 0 0 0 -18.42 3.8l-13.12-33.61a79.48 79.48 0 0 1 31.54-6.51z" fill="#ba9266"/><path d="m212.8 57.39-24.8 25.32a47.3 47.3 0 0 0 -34.79-15.45v-36.32a80.44 80.44 0 0 1 52.79 19.87 88.62 88.62 0 0 1 6.8 6.58z" fill="#69a0ef"/><path d="m236.29 118.19a89.8 89.8 0 0 1 -16.29 51.86l-27.82-21.59a52.88 52.88 0 0 0 -4.18-65.75l24.8-25.32a89.26 89.26 0 0 1 23.49 60.8z" fill="#8fc899"/><path d="m220 170.05a84.75 84.75 0 0 1 -26.94 24.69l-16.61-31.87a50 50 0 0 0 15.73-14.41z" fill="#ffaa4b"/><path d="m193.1 194.74a79.81 79.81 0 0 1 -39.91 10.7c-45.91 0-83.12-39.05-83.12-87.25a92.83 92.83 0 0 1 1.15-14.55l34.15 6.07a51 51 0 0 0 -.68 8.48c0 28.12 21.73 50.93 48.51 50.93a46.44 46.44 0 0 0 23.29-6.25z" fill="#e7616a"/><path d="m134.77 71.06c-15.27 6.58-26.63 21.1-29.41 38.66l-34.15-6.07c4.79-30.09 24.28-54.92 50.44-66.2z" fill="#a96ba7"/><rect fill="#fff" height="227.2" rx="10" width="299.71" x="1383.04" y="680.91"/><rect fill="none" height="227.2" rx="10" stroke="#e2e2e2" stroke-miterlimit="10" stroke-width="4" width="299.71" x="1383.04" y="680.91"/><path d="m1419 783.51h35.52v68.18h-35.52z" fill="#a96ba7"/><path d="m1454.52 725.65h35.52v126.04h-35.52z" fill="#ffaa4b"/><path d="m1505.51 752.95h35.52v98.74h-35.52z" fill="#a96ba7"/><path d="m1541.03 725.65h35.52v126.04h-35.52z" fill="#ffaa4b"/><path d="m1627.54 791.23h35.52v60.46h-35.52z" fill="#ffaa4b"/><path d="m1592.02 765.95h35.52v85.73h-35.52z" fill="#a96ba7"/><path d="m1395.98 700.09h8.17v178.74h-8.17z" fill="#e2e2e2"/><path d="m1528.61 737.62h8.57v273.84h-8.57z" fill="#e2e2e2" transform="matrix(0 -1 1 0 658.35 2407.44)"/><rect fill="#fff" height="322.66" rx="10" width="453.92" x="547.59" y="2"/><rect fill="none" height="322.66" rx="10" stroke="#e2e2e2" stroke-miterlimit="10" stroke-width="4" width="453.92" x="547.59" y="2"/><path d="m770.8 89.32h5.2v399.57h-5.2z" fill="#e2e2e2" transform="matrix(0 -1 1 0 484.3 1062.5)"/><path d="m571.3 47.1h4.63v244.6h-4.63z" fill="#e2e2e2"/><path d="m941.38 182.41h12.14v62.45h-12.14z" fill="#e7616a"/><path d="m915.36 182.41h12.14v50.31h-12.14z" fill="#e7616a"/><path d="m889.34 182.41h12.14v34.69h-12.14z" fill="#e7616a"/><path d="m863.32 182.41h12.14v22.55h-12.14z" fill="#e7616a"/><path d="m837.3 182.41h12.14v46.26h-12.14z" fill="#e7616a"/><path d="m811.27 182.41h12.14v65.92h-12.14z" fill="#e7616a"/><path d="m785.25 182.41h12.14v26.02h-12.14z" fill="#e7616a"/><path d="m759.23 182.41h12.14v45.1h-12.14z" fill="#e7616a"/><path d="m707.19 182.41h12.14v52.62h-12.14z" fill="#e7616a"/><path d="m681.17 182.41h12.14v31.23h-12.14z" fill="#e7616a"/><path d="m629.13 182.41h12.14v37.59h-12.14z" fill="#e7616a"/><path d="m603.11 182.41h12.14v59.56h-12.14z" fill="#e7616a"/><g fill="#69a0ef"><path d="m603.11 126.32h12.14v62.45h-12.14z" transform="matrix(-1 0 0 -1 1218.35 315.1)"/><path d="m629.13 96.83h12.14v91.94h-12.14z" transform="matrix(-1 0 0 -1 1270.4 285.61)"/><path d="m655.15 137.31h12.14v51.46h-12.14z" transform="matrix(-1 0 0 -1 1322.44 326.08)"/><path d="m681.17 77.17h12.14v111.6h-12.14z" transform="matrix(-1 0 0 -1 1374.48 265.95)"/><path d="m707.19 99.15h12.14v89.63h-12.14z" transform="matrix(-1 0 0 -1 1426.52 287.92)"/><path d="m733.21 122.85h12.14v65.92h-12.14z" transform="matrix(-1 0 0 -1 1478.56 311.63)"/><path d="m759.23 90.47h12.14v98.3h-12.14z" transform="matrix(-1 0 0 -1 1530.61 279.25)"/><path d="m811.27 150.61h12.14v38.16h-12.14z" transform="matrix(-1 0 0 -1 1634.69 339.38)"/><path d="m837.3 121.12h12.14v67.65h-12.14z" transform="matrix(-1 0 0 -1 1686.73 309.89)"/><path d="m863.32 137.31h12.14v51.46h-12.14z" transform="matrix(-1 0 0 -1 1738.78 326.08)"/><path d="m889.34 94.52h12.14v94.25h-12.14z" transform="matrix(-1 0 0 -1 1790.82 283.29)"/><path d="m915.36 107.82h12.14v80.95h-12.14z" transform="matrix(-1 0 0 -1 1842.86 296.59)"/><path d="m941.38 99.15h12.14v89.63h-12.14z" transform="matrix(-1 0 0 -1 1894.9 287.92)"/></g><rect fill="#fff" height="185.29" rx="10" width="337.8" x="1363.66" y="270.46"/><rect fill="none" height="185.29" rx="10" stroke="#e2e2e2" stroke-miterlimit="10" stroke-width="4" width="337.8" x="1363.66" y="270.46"/><path d="m1531.56 352.07h2.68v64.22h-2.68z" fill="#4d4d4d"/><path d="m1576.52 366.07 10 18.26c.9 1.57-.23 4.53-2 4.53h-19.92c-1.81 0-2.94-3-2-4.53l10-17.76c.76-1.57 3.02-2.06 3.92-.5z" fill="#8fc899"/><path d="m1419 379.16h14.26v-14.44l11.94-2.05v16.49h6.8l-1.6 10.16h-5.26v11.76h-11.94v-11.76h-27.81v-8.91l23.61-40.46h13.1z" fill="#545454"/><path d="m1477.07 402q-1.78 0-4.1-.13t-4.77-.49q-2.45-.36-4.9-.89a33.07 33.07 0 0 1 -4.59-1.34l2-10.16a52.55 52.55 0 0 0 8 1.74 55.69 55.69 0 0 0 7.71.58q6.06 0 8.6-2.14t2.54-6.68a10.61 10.61 0 0 0 -.85-4.54 6.08 6.08 0 0 0 -2.45-2.72 11.16 11.16 0 0 0 -4-1.29 37.93 37.93 0 0 0 -5.53-.36h-12.83l1-33.6h34.85l-1.43 10.52h-21.75l-.36 12.48h5.08a34.34 34.34 0 0 1 9.89 1.25 16.8 16.8 0 0 1 6.64 3.61 13.78 13.78 0 0 1 3.7 5.84 25.08 25.08 0 0 1 1.16 7.93v1.39a20.57 20.57 0 0 1 -1.38 7.66 15.54 15.54 0 0 1 -4.28 6 20 20 0 0 1 -7.31 3.92 35.63 35.63 0 0 1 -10.64 1.42z" fill="#545454"/><path d="m1608.62 381.28h11.74v-11.89l9.83-1.69v13.58h5.65l-1.32 8.36h-4.33v9.69h-9.83v-9.69h-22.89v-7.34l19.44-33.3h10.79z" fill="#545454"/><rect fill="#fff" height="185.29" rx="10" width="337.8" x="1127.45" y="89.77"/><rect fill="none" height="185.29" rx="10" stroke="#e2e2e2" stroke-miterlimit="10" stroke-width="4" width="337.8" x="1127.45" y="89.77"/><path d="m1295.35 171.38h2.68v64.22h-2.68z" fill="#4d4d4d"/><path d="m1340.31 185.38 10 18.26c.9 1.57-.23 4.53-2 4.53h-19.92c-1.81 0-2.94-3-2-4.53l10-17.76c.75-1.56 3.02-2.07 3.92-.5z" fill="#8fc899"/><path d="m1182.75 198.47h14.25v-14.47l11.94-2.05v16.49h6.86l-1.6 10.16h-5.26v11.76h-11.94v-11.73h-27.8v-8.91l23.62-40.46h13.1z" fill="#545454"/><path d="m1240.85 221.28q-1.78 0-4.1-.13t-4.77-.49q-2.45-.36-4.9-.89a33.07 33.07 0 0 1 -4.59-1.34l2-10.16a52.55 52.55 0 0 0 8 1.74 55.69 55.69 0 0 0 7.71.58q6.06 0 8.6-2.14t2.54-6.68a10.61 10.61 0 0 0 -.85-4.54 6.08 6.08 0 0 0 -2.45-2.72 11.16 11.16 0 0 0 -4-1.29 37.93 37.93 0 0 0 -5.53-.36h-12.83l1-33.6h34.85l-1.53 10.51h-21.75l-.36 12.48h5.11a34.34 34.34 0 0 1 9.89 1.25 16.8 16.8 0 0 1 6.64 3.61 13.78 13.78 0 0 1 3.7 5.84 25.08 25.08 0 0 1 1.16 7.93v1.43a20.57 20.57 0 0 1 -1.39 7.69 15.54 15.54 0 0 1 -4.28 6 20 20 0 0 1 -7.31 3.92 35.63 35.63 0 0 1 -10.56 1.36z" fill="#545454"/><path d="m1372.41 200.59h11.74v-11.89l9.85-1.7v13.58h5.65l-1.32 8.36h-4.33v9.69h-9.83v-9.69h-22.89v-7.34l19.44-33.31h10.79z" fill="#545454"/></g><ellipse cx="960" cy="1004.22" fill="#f4f6f8" rx="960" ry="75.78"/><path d="m351.69 194.97h1216.62v56.08h-1216.62z" fill="#fafafa"/><path d="m351.69 251.31h1216.62v38.02h-1216.62z" fill="#3c4e75"/><path d="m351.69 289.25h1216.62v551.28h-1216.62z" fill="#f4f4f5"/><circle cx="1547.4" cy="223.34" fill="#7497e2" r="11.88"/><circle cx="1547.4" cy="269.2" fill="#7497e2" r="11.88"/><rect fill="#7497e2" height="32.55" rx="2.38" width="102.89" x="370.63" y="297.31"/><rect fill="#7497e2" height="32.55" rx="2.38" width="84.12" x="483.02" y="297.31"/><path d="m393.94 312.25h-5.7v-5.7h-2.85v5.7h-5.7v2.85h5.7v5.71h2.85v-5.71h5.7z" fill="#fff"/><path d="m1554.53 267.77h-5.7v-5.7h-2.86v5.7h-5.7v2.86h5.7v5.7h2.86v-5.7h5.7z" fill="#fff"/><path d="m492.38 306.55h4.75v14.26h-4.75z" fill="#fff"/><path d="m498.79 306.55h7.13v7.13h-7.13z" fill="#fff"/><path d="m498.79 316.05h7.13v4.75h-7.13z" fill="#fff"/><path d="m1549.33 223.49a3 3 0 0 0 -1 .77 2.15 2.15 0 0 0 -.34 1.19v.67h-2.34v-.76a3.79 3.79 0 0 1 .32-1.93 3 3 0 0 1 1.25-1.23l.7-.4a2.46 2.46 0 0 0 .84-.64 1.45 1.45 0 0 0 .23-.87 1.34 1.34 0 0 0 -.53-1.2 3.31 3.31 0 0 0 -1.79-.36 9 9 0 0 0 -1.71.16 8.79 8.79 0 0 0 -1.6.47l.34-2.32a8.7 8.7 0 0 1 1.57-.47 9.54 9.54 0 0 1 2-.2 7.53 7.53 0 0 1 1.83.21 4.19 4.19 0 0 1 1.44.65 3 3 0 0 1 .94 1.09 3.39 3.39 0 0 1 .33 1.55v.13a3.77 3.77 0 0 1 -.41 1.85 3.26 3.26 0 0 1 -1.38 1.24zm-2.51 6.81a1.93 1.93 0 0 1 -1.22-.34 1.36 1.36 0 0 1 -.44-1.14 1.42 1.42 0 0 1 .44-1.16 1.86 1.86 0 0 1 1.22-.36 1.89 1.89 0 0 1 1.24.36 1.42 1.42 0 0 1 .44 1.16 1.35 1.35 0 0 1 -.5 1.18 2 2 0 0 1 -1.18.3z" fill="#fff"/><path d="m370.63 348.9h1178.75v491.64h-1178.75z" fill="#e6e6e8"/><path d="m395.43 363.1h309v171h-309z" fill="#fff"/><path d="m548.43 439.1h3v59h-3z" fill="#4d4d4d"/><path d="m589.79 451.61 9.14 16.55c.83 1.44-.21 3.94-1.87 3.94h-18.28c-1.66 0-2.7-2.51-1.87-3.94l9.14-16.16c.83-1.47 2.95-1.82 3.74-.39z" fill="#8fc899"/><path d="m719.43 363.1h309v171h-309z" fill="#fff"/><path d="m872.43 439.1h3v59h-3z" fill="#4d4d4d"/><path d="m910.28 471.38-9.14-16.94c-.83-1.44.21-4.34 1.87-4.34h18.29c1.66 0 2.7 2.9 1.87 4.34l-9.17 16.39c-.82 1.44-2.89 1.99-3.72.55z" fill="#e7616a"/><path d="m1509.61 221a.48.48 0 0 0 0-.67l-1.07-1.07a.48.48 0 0 0 -.67 0l-5.36 5.36a.48.48 0 0 1 -.67 0l-5.36-5.36a.48.48 0 0 0 -.67 0l-1.07 1.07a.48.48 0 0 0 0 .67l7.1 7.1a.48.48 0 0 0 .67 0z" fill="#666"/><path d="m1466.89 214.71v1.39h2.33l-3.08 3.09.99.98 3.15-3.16v2.48h1.39v-4.78z" fill="#666"/><path d="m1466.89 233.72v-1.39h2.33l-3.08-3.09.99-.98 3.15 3.16v-2.48h1.39v4.78z" fill="#666"/><path d="m1457.54 214.71v1.39h-2.34l3.09 3.09-.99.98-3.15-3.16v2.48h-1.39v-4.78z" fill="#666"/><path d="m1457.54 233.72v-1.39h-2.34l3.09-3.09-.99-.98-3.15 3.16v-2.48h-1.39v4.78z" fill="#666"/><path d="m1413.93 222.07h16.63v11.88h-16.63z" fill="#666"/><path d="m1409.42 214.23v11.88h16.63v-11.88zm15.45 10.69h-14.26v-9.5h14.26z" fill="#666"/><text fill="#545454" font-family="Soleto-Bold, Soleto" font-size="70" font-weight="700" transform="translate(451.41 479.73)">45</text><text fill="#545454" font-family="Soleto-Bold, Soleto" font-size="57.63" font-weight="700" transform="translate(607.31 478.35)">4</text><text fill="#545454" font-family="Soleto-Bold, Soleto" font-size="70" font-weight="700" transform="translate(774.56 479.73)">65</text><text fill="#545454" font-family="Soleto-Bold, Soleto" font-size="57.63" font-weight="700" transform="translate(930.45 478.35)">4</text><path d="m1568.31 195v645.53h-1216.62v-645.53zm0-6h-1216.62a6 6 0 0 0 -6 6v645.53a6 6 0 0 0 6 6h1216.62a6 6 0 0 0 6-6v-645.53a6 6 0 0 0 -6-6z" fill="#4d4d4d"/><path d="m1296.35 363.1h237.92v379.5h-237.92z" fill="#fff"/><path d="m1401.38 492.42a9.8 9.8 0 0 1 3.74.63 5.93 5.93 0 0 1 2.42 1.75 7 7 0 0 1 1.29 2.67 13.8 13.8 0 0 1 .39 3.38v1.39a13.24 13.24 0 0 1 -.41 3.41 7 7 0 0 1 -1.34 2.69 6.14 6.14 0 0 1 -2.42 1.75 11.17 11.17 0 0 1 -7.51 0 6.07 6.07 0 0 1 -2.44-1.84 7.06 7.06 0 0 1 -1.27-2.69 14.12 14.12 0 0 1 -.37-3.27v-1.39a13.38 13.38 0 0 1 .41-3.48 6.64 6.64 0 0 1 1.36-2.65 6.18 6.18 0 0 1 2.47-1.7 10 10 0 0 1 3.68-.65zm0 13.95a2.19 2.19 0 0 0 2.07-1 6.61 6.61 0 0 0 .6-3.23v-1.16a6.67 6.67 0 0 0 -.6-3.41 2.21 2.21 0 0 0 -2-.89 2.35 2.35 0 0 0 -2.21 1 6.81 6.81 0 0 0 -.6 3.3v1.16a6.92 6.92 0 0 0 .57 3.21 2.23 2.23 0 0 0 2.12 1.01zm17.84-13.59h5.76l-17.38 30.63h-5.76zm6.27 12.69a9.78 9.78 0 0 1 3.73.63 5.93 5.93 0 0 1 2.42 1.75 6.91 6.91 0 0 1 1.29 2.67 13.8 13.8 0 0 1 .39 3.38v1.39a13.24 13.24 0 0 1 -.41 3.41 6.92 6.92 0 0 1 -1.34 2.69 6.12 6.12 0 0 1 -2.42 1.74 9.44 9.44 0 0 1 -3.66.63 9.65 9.65 0 0 1 -3.85-.67 6.07 6.07 0 0 1 -2.44-1.84 7.06 7.06 0 0 1 -1.27-2.69 14.12 14.12 0 0 1 -.37-3.27v-1.39a13.38 13.38 0 0 1 .41-3.48 6.72 6.72 0 0 1 1.36-2.65 6.26 6.26 0 0 1 2.47-1.7 10 10 0 0 1 3.64-.6zm0 13.95a2.19 2.19 0 0 0 2.07-1 6.61 6.61 0 0 0 .6-3.23v-1.19a6.67 6.67 0 0 0 -.6-3.41 2.2 2.2 0 0 0 -2-.9 2.36 2.36 0 0 0 -2.21 1 6.81 6.81 0 0 0 -.6 3.3v1.16a6.89 6.89 0 0 0 .57 3.21 2.22 2.22 0 0 0 2.07 1.06z" fill="#545454"/><path d="m1480.74 432.85-25.6 24.91a50.15 50.15 0 0 0 -43.84-25.32c-1 0-2.05 0-3.07.1l-6.78-33.93a86.89 86.89 0 0 1 9.85-.56 85.93 85.93 0 0 1 69.44 34.8z" fill="#71b37c"/><path d="m1401.36 433.41a49.92 49.92 0 0 0 -33.92 24.35l-25.6-24.91a85.47 85.47 0 0 1 52.78-33.21z" fill="#e2e2e2"/><path d="m1414.68 482.53a7.6 7.6 0 0 1 -9-5.86 7.27 7.27 0 0 1 2.81-7.26l-7.18-36-6.74-33.77-3-15.07 6.78-1.28 3.05 15.33 6.78 33.93 7.1 35.6a7.36 7.36 0 0 1 -.64 14.39z" fill="#545454"/><path d="m1412.8 600.3h5.01v216.18h-5.01z" fill="#e2e2e2" transform="matrix(0 -1 1 0 706.92 2123.7)"/><path d="m1307.22 579.01h4.58v131.88h-4.58z" fill="#e2e2e2"/><path d="m1325.49 640.39s23.29 11.43 46 4.53 41.32-37.88 78.21-30.37 46.2 12.42 67.94 10.75v65h-192.01z" fill="#69a0ef" opacity=".4"/><path d="m1325.49 640.27s23.29 11.49 46 4.59 41.52-37.85 78.41-30.34 46.4 12.45 68.13 10.78" fill="none" stroke="#69a0ef" stroke-miterlimit="10" stroke-width="3.95"/><path d="m1043.43 363.54h238.56v180.84h-238.56z" fill="#fff"/><path d="m1161.1 386.06v28.26a36 36 0 0 0 -14.33 3l-10.21-26.15a61.86 61.86 0 0 1 24.54-5.11z" fill="#ba9266"/><path d="m1207.48 406.64-19.31 19.7a36.81 36.81 0 0 0 -27.07-12v-28.28a62.6 62.6 0 0 1 41.1 15.47 69 69 0 0 1 5.28 5.11z" fill="#69a0ef"/><path d="m1225.77 454a69.88 69.88 0 0 1 -12.65 40.36l-21.65-16.8a41.15 41.15 0 0 0 -3.3-51.17l19.31-19.7a69.46 69.46 0 0 1 18.29 47.31z" fill="#8fc899"/><path d="m1213.11 494.32a66 66 0 0 1 -21 19.21l-12.93-24.8a38.94 38.94 0 0 0 12.24-11.21z" fill="#ffaa4b"/><path d="m1192.15 513.53a62.11 62.11 0 0 1 -31.06 8.33c-35.73 0-64.69-30.39-64.69-67.9a72.25 72.25 0 0 1 .89-11.32l26.58 4.72a39.72 39.72 0 0 0 -.53 6.6c0 21.88 16.91 39.64 37.75 39.64a36.14 36.14 0 0 0 18.13-4.87z" fill="#e7616a"/><path d="m1146.76 417.28a39.31 39.31 0 0 0 -22.88 30.08l-26.58-4.72c3.74-23.41 18.88-42.74 39.24-51.52z" fill="#a96ba7"/><path d="m472.32 218.91a.71.71 0 0 0 1.2-.43v-8.38a.87.87 0 0 0 -.87-.87h-8.37a.7.7 0 0 0 -.47 1.16z" fill="#ed1c24"/><g fill="#231f20"><path d="m370.63 210a.67.67 0 0 1 .68-.66h3.69a.67.67 0 0 1 .68.66v8.12c0 .37.15.41.34.09l4.93-8.3a1.31 1.31 0 0 1 1-.57h3.74c.37 0 .51.25.29.55l-5 7.2a1.32 1.32 0 0 0 -.11 1.16l5.72 13.05a.41.41 0 0 1 -.41.61h-3.87a1.06 1.06 0 0 1 -.92-.62l-3.57-9.16c-.13-.34-.41-.37-.62-.07l-1.15 1.64a2.48 2.48 0 0 0 -.38 1.21v6.34a.67.67 0 0 1 -.68.66h-3.69a.67.67 0 0 1 -.68-.66z"/><path d="m387.52 210a.67.67 0 0 1 .68-.66h3.39a.67.67 0 0 1 .68.66v21.24a.67.67 0 0 1 -.68.66h-3.39a.67.67 0 0 1 -.68-.66z"/><path d="m399 213.17a.67.67 0 0 1 -.68.66h-3.44a.67.67 0 0 1 -.68-.66v-3.28a.67.67 0 0 1 .68-.66h3.44a.67.67 0 0 1 .68.66zm-4.77 2.71a.67.67 0 0 1 .68-.66h3.39a.67.67 0 0 1 .68.66v15.38a.67.67 0 0 1 -.68.66h-3.39a.67.67 0 0 1 -.68-.66z"/><path d="m401 215.87a.67.67 0 0 1 .68-.66h3a.67.67 0 0 1 .68.66v1.13c0 .37.31.42.42.15a3.9 3.9 0 0 1 3.44-2.19 4.68 4.68 0 0 1 3.88 2q1.54 2 1.54 6.24 0 4.4-1.51 6.63a4.85 4.85 0 0 1 -4.25 2.23 4.1 4.1 0 0 1 -3.24-1.47v6.25a.67.67 0 0 1 -.68.66h-3.32a.67.67 0 0 1 -.68-.66zm4.67 8.52v1.33a10.5 10.5 0 0 0 .36 2.45 1.67 1.67 0 0 0 1.6.72 1.7 1.7 0 0 0 1.59-1q.52-1 .52-4.64a12.56 12.56 0 0 0 -.45-4.16 1.57 1.57 0 0 0 -1.53-1.09 2 2 0 0 0 -1.51.68q-.62.69-.62 3.18z"/><path d="m438.35 223.55q0 8.71-6.89 8.71t-6.9-8.71q0-8.69 6.9-8.69t6.89 8.69zm-4.89 0a13.82 13.82 0 0 0 -.44-4.32 1.64 1.64 0 0 0 -3.1-.06 13 13 0 0 0 -.47 4.38 15.06 15.06 0 0 0 .4 4.25 1.67 1.67 0 0 0 3.19 0 14.63 14.63 0 0 0 .42-4.24z"/><path d="m439.93 210a.67.67 0 0 1 .68-.66h3.39a.67.67 0 0 1 .68.66v21.24a.67.67 0 0 1 -.68.66h-3.39a.67.67 0 0 1 -.68-.66z"/><path d="m451.44 213.17a.67.67 0 0 1 -.68.66h-3.44a.67.67 0 0 1 -.68-.66v-3.28a.67.67 0 0 1 .68-.66h3.44a.67.67 0 0 1 .68.66zm-4.77 2.71a.67.67 0 0 1 .68-.66h3.39a.67.67 0 0 1 .68.66v15.38a.67.67 0 0 1 -.68.66h-3.39a.67.67 0 0 1 -.68-.66z"/><path d="m466.79 223.55q0 8.71-6.89 8.71t-6.9-8.71q0-8.69 6.91-8.69t6.88 8.69zm-4.89 0a13.61 13.61 0 0 0 -.45-4.32 1.57 1.57 0 0 0 -1.55-1.13 1.6 1.6 0 0 0 -1.55 1.07 13.09 13.09 0 0 0 -.47 4.38 15.09 15.09 0 0 0 .4 4.25 1.66 1.66 0 0 0 3.19 0 14.54 14.54 0 0 0 .43-4.24z"/><path d="m424.22 208.58a12.48 12.48 0 0 0 -1.79-.14 5.44 5.44 0 0 0 -3.35.93 4.26 4.26 0 0 0 -1.6 2.15 19.88 19.88 0 0 0 -.36 3s0 .27 0 .66h-1.27a.67.67 0 0 0 -.68.66v2.34a.67.67 0 0 0 .68.66h1.26v12.38a.67.67 0 0 0 .68.66h3.21a.67.67 0 0 0 .68-.66v-12.35h2.3a.67.67 0 0 0 .68-.66v-2.34a.67.67 0 0 0 -.68-.66h-2.3a5.12 5.12 0 0 1 .38-2.45q.38-.57 1.74-.57h.39a.6.6 0 0 0 .67-.6v-2.37a.63.63 0 0 0 -.64-.64z"/></g><path d="m469 228.64a1.67 1.67 0 0 1 .81.21 1.52 1.52 0 0 1 .61.6 1.64 1.64 0 0 1 0 1.64 1.54 1.54 0 0 1 -.61.6 1.64 1.64 0 0 1 -1.63 0 1.54 1.54 0 0 1 -.61-.6 1.64 1.64 0 0 1 0-1.64 1.52 1.52 0 0 1 .61-.6 1.67 1.67 0 0 1 .82-.21zm0 .32a1.34 1.34 0 0 0 -.65.17 1.23 1.23 0 0 0 -.49.49 1.32 1.32 0 0 0 0 1.32 1.24 1.24 0 0 0 .49.49 1.31 1.31 0 0 0 1.31 0 1.25 1.25 0 0 0 .49-.49 1.32 1.32 0 0 0 0-1.32 1.22 1.22 0 0 0 -.49-.49 1.34 1.34 0 0 0 -.66-.13zm-.74 2.19v-1.74h.91a.68.68 0 0 1 .27.07.44.44 0 0 1 .16.17.49.49 0 0 1 .07.25.46.46 0 0 1 -.12.32.56.56 0 0 1 -.35.17l.12.07.12.13.13.21.21.35h-.44l-.15-.28a1.18 1.18 0 0 0 -.24-.36.39.39 0 0 0 -.24-.07h-.09v.71zm.35-1h.14a1.74 1.74 0 0 0 .38 0 .22.22 0 0 0 .16-.22.21.21 0 0 0 0-.13.23.23 0 0 0 -.12-.08 1.68 1.68 0 0 0 -.38 0h-.14z" fill="#6d6e70"/><ellipse cx="919.52" cy="1044.1" fill="#5290e9" opacity=".1" rx="439.85" ry="12.94"/><path d="m1116.54 656.37c7 2.9 36-1.3 36-1.3a132.59 132.59 0 0 1 15.28.38c6 .61 47.43 3.82 59.2 4.13s20.25-8.86 23.53-10.69c7.49-4.2 22.61-27.5 28.72-37.35 1.76-2.67 2.75-4.35 2.75-4.35l-19.13-14.19c-1.15 2.14-2.52 4.43-4.05 6.72-10.09 14.9-27.27 31.47-34.45 35.29-8.25 4.43-53.78 1.6-65.23 1.6s-7-6.72-22.3-11.76-15.58 3.13-10.77 3.82 10.47 3.13 8.94 6-16 .31-22.3 3.51-3.22 15.36 3.81 18.19z" fill="#c07742"/><ellipse cx="1233.35" cy="1049.99" fill="#5290e9" opacity=".1" rx="34.69" ry="1.41"/><ellipse cx="1318.51" cy="1050.43" fill="#5290e9" opacity=".1" rx="34.69" ry="1.41"/><path d="m1340.13 742.75s-1.43 34.37-7.16 59.2-6.68 63.5-1.91 94 15.28 132.72 15.28 132.72h-18.34s-33.7-135.58-33.7-143-6.21-88.56-6.21-88.56-21.48 66.89-20.09 77.89-7.16 153.73-7.16 153.73h-18.62s-15.22-152.31-12.85-163.29 24.83-122.69 24.83-122.69z" fill="#14313f"/><path d="m1200.29 1047.75a4.15 4.15 0 0 0 .92 2 1.61 1.61 0 0 0 .54.31c6.56 2 62.41-.31 62.41-.31v-14.89c0-5.81-3.13-8.33-7-7.41s-5.89 1.83-7.8-3.28-7.94-3.29-7.94-3.29c-5.92 16.94-41.59 19.46-41.13 26.87z" fill="#90111a"/><path d="m1200.29 1047.75a4.15 4.15 0 0 0 .92 2 1.61 1.61 0 0 0 .54.31c6.56 2 62.41-.31 62.41-.31v-3.44z" fill="#14313f"/><path d="m1285.34 1047.76a4.15 4.15 0 0 0 1 2 1.61 1.61 0 0 0 .55.29c6.63 1.76 62.36-2.47 62.36-2.47l-.12-3.43-.4-11.45c-.2-5.8-3.42-8.21-7.21-7.16s-5.82 2-7.9-3-8.05-3-8.05-3c-5.38 17.08-40.94 20.84-40.23 28.22z" fill="#90111a"/><path d="m1285.34 1047.76a4.15 4.15 0 0 0 1 2 1.61 1.61 0 0 0 .55.29c6.63 1.76 62.36-2.47 62.36-2.47l-.12-3.43z" fill="#14313f"/><path d="m1282 579.81s-11.94-4.36-18.15 6-5.41 11.46-5.41 11.46l14 5.4z"/><path d="m1288.09 797.17-5.54-41.04" style="fill:none;stroke-miterlimit:10;opacity:.1;stroke:#000;stroke-width:3.82;stroke-linecap:round"/><path d="m1289.89 561.18v17.8l4.2 12.45 16.42-15.28-.08-10.08-.07-4.89z" fill="#c07742"/><path d="m1289.89 561.18v6l1.14.69c5.12 2.6 10.39 3.44 15.2.92a34.81 34.81 0 0 0 4.2-2.67l-.07-4.89z" opacity=".1"/><path d="m1334.62 516.91s7.5-19.7 3-27.42-15.37-14.9-39.71-15.24-32 4-32.43 23.34c-.34 16.08 24.11 41.82 53.36 35.15 5.96-1.36 9.33-12.31 15.78-15.83z"/><path d="m1340.94 523.89c.07 4.23-2.65 8.67-8.91 7.73 0 0-6 14.29-16.25 24.58a39.54 39.54 0 0 1 -9.54 7.26c-4.82 2.49-10.11 1.71-15.23-.93-1.07-.61-2.13-1.23-3.22-2-9.83-6.73-18.45-19.53-20.65-27.65v-.11a15.7 15.7 0 0 1 -.37-1.58c-2-12.4-2.81-29.65-1.24-33.63s4.5-7.68 19.93-4 27.3-3.7 32.26 1.69a17 17 0 0 1 4.17 9.74v.23.11.06a28.28 28.28 0 0 1 -.34 8.68 13.69 13.69 0 0 0 .45 6.76c.89 2.71 2.72 4.18 5 1.85 3.8-4.06 2.17-6.63 9.08-5.69 3.06.47 4.81 3.67 4.86 6.9z" fill="#c07742"/><path d="m1298.45 506.49-1.69 3.07s8-1.06 11.06.16 6.23 4.71 6.23 4.71-1-6.07-4.64-7.45-10.96-.49-10.96-.49z" fill="#000009"/><path d="m1285.48 506.73 1.57 3.13s-7.93-1.36-11.06-.25-6.41 4.47-6.41 4.47 1.23-6 4.91-7.27 10.99-.08 10.99-.08z" fill="#000009"/><path d="m1255.44 604.49h.08l14.13 4 2.6-6-12-4.74a1 1 0 0 1 -.23.15l-.08.08z" opacity=".1"/><path d="m1310.53 576.13s25.3-5.25 30.08 16.23-7.64 86.41-5.25 100.26 4.77 50.13 4.77 50.13h-85.93s9.55-58.72 9.55-77.82.48-32-.48-42 5-36.28 10.62-41.42 16-2.51 16-2.51l4.18 12.41z" fill="#90111a"/><path d="m1250.27 647.71c-8.45.15-38.27-.49-49.82-.77 0 0-5.19.08-7.94-3.25" style="fill:none;stroke-miterlimit:10;opacity:.1;stroke:#000;stroke-width:3.82;stroke-linecap:round"/><path d="m646.53 516.26h545.98v272.4h-545.98z" fill="#f4f4f5"/><path d="m661.65 533.21h514.36v239.88h-514.36z" fill="#fff" transform="matrix(-1 0 0 -1 1837.66 1306.3)"/><path d="m1024.93 679.67h125.71v54.2h-125.71z" fill="#ffaa4b" transform="matrix(-1 0 0 -1 2175.57 1413.55)"/><path d="m787.81 679.89h239.48v53.8h-239.48z" fill="#8fc899"/><path d="m688.94 679.89h101.18v53.8h-101.18z" fill="#69a0ef"/><path d="m1084.69 604.35a11.18 11.18 0 0 1 4.36.75 7 7 0 0 1 2.83 2.1 8.34 8.34 0 0 1 1.51 3.2 16.89 16.89 0 0 1 .46 4.06v1.67a16.34 16.34 0 0 1 -.49 4.09 8.48 8.48 0 0 1 -1.56 3.23 7.19 7.19 0 0 1 -2.83 2.1 10.82 10.82 0 0 1 -4.28.75 11 11 0 0 1 -4.5-.81 7.11 7.11 0 0 1 -2.86-2.21 8.59 8.59 0 0 1 -1.48-3.23 17 17 0 0 1 -.43-3.93v-1.67a16.5 16.5 0 0 1 .49-4.17 8.05 8.05 0 0 1 1.59-3.18 7.25 7.25 0 0 1 2.88-2 11.36 11.36 0 0 1 4.31-.75zm-.06 16.74a2.54 2.54 0 0 0 2.42-1.24 8.16 8.16 0 0 0 .7-3.88v-1.4a8.2 8.2 0 0 0 -.7-4.09 2.55 2.55 0 0 0 -2.31-1.08 2.73 2.73 0 0 0 -2.58 1.21 8.34 8.34 0 0 0 -.7 4v1.39a8.51 8.51 0 0 0 .67 3.85 2.57 2.57 0 0 0 2.51 1.24zm20.84-16.31h6.73l-20.3 36.77h-6.73zm7.33 15.22a11.18 11.18 0 0 1 4.36.75 7 7 0 0 1 2.83 2.1 8.48 8.48 0 0 1 1.51 3.2 17.12 17.12 0 0 1 .46 4.06v1.67a16.34 16.34 0 0 1 -.49 4.09 8.41 8.41 0 0 1 -1.56 3.23 7.17 7.17 0 0 1 -2.83 2.1 10.81 10.81 0 0 1 -4.28.75 11 11 0 0 1 -4.5-.81 7.1 7.1 0 0 1 -2.85-2.21 8.54 8.54 0 0 1 -1.48-3.23 17 17 0 0 1 -.43-3.93v-1.67a16.51 16.51 0 0 1 .46-4.1 8 8 0 0 1 1.59-3.18 7.23 7.23 0 0 1 2.88-2 11.36 11.36 0 0 1 4.33-.82zm-.05 16.74a2.55 2.55 0 0 0 2.42-1.24 8.21 8.21 0 0 0 .7-3.88v-1.4a8.24 8.24 0 0 0 -.7-4.09 2.56 2.56 0 0 0 -2.32-1.08 2.72 2.72 0 0 0 -2.58 1.21 8.29 8.29 0 0 0 -.7 4v1.4a8.52 8.52 0 0 0 .67 3.85 2.58 2.58 0 0 0 2.5 1.25z" fill="#ffaa4b"/><path d="m961.8 604.35a11.18 11.18 0 0 1 4.36.75 7 7 0 0 1 2.83 2.1 8.34 8.34 0 0 1 1.51 3.2 16.89 16.89 0 0 1 .46 4.06v1.67a16.34 16.34 0 0 1 -.49 4.09 8.48 8.48 0 0 1 -1.56 3.23 7.19 7.19 0 0 1 -2.83 2.1 10.82 10.82 0 0 1 -4.28.75 11 11 0 0 1 -4.5-.81 7.11 7.11 0 0 1 -2.86-2.21 8.59 8.59 0 0 1 -1.48-3.23 17 17 0 0 1 -.43-3.93v-1.67a16.5 16.5 0 0 1 .49-4.17 8.05 8.05 0 0 1 1.59-3.18 7.25 7.25 0 0 1 2.88-2 11.36 11.36 0 0 1 4.31-.75zm-.06 16.74a2.54 2.54 0 0 0 2.42-1.24 8.16 8.16 0 0 0 .7-3.88v-1.4a8.19 8.19 0 0 0 -.7-4.09 2.55 2.55 0 0 0 -2.31-1.08 2.73 2.73 0 0 0 -2.58 1.21 8.34 8.34 0 0 0 -.7 4v1.39a8.51 8.51 0 0 0 .67 3.85 2.57 2.57 0 0 0 2.51 1.24zm20.84-16.31h6.73l-20.31 36.77h-6.73zm7.32 15.22a11.18 11.18 0 0 1 4.36.75 7 7 0 0 1 2.83 2.1 8.48 8.48 0 0 1 1.51 3.2 17.12 17.12 0 0 1 .46 4.06v1.67a16.34 16.34 0 0 1 -.49 4.09 8.41 8.41 0 0 1 -1.56 3.23 7.17 7.17 0 0 1 -2.83 2.1 10.81 10.81 0 0 1 -4.28.75 11 11 0 0 1 -4.5-.81 7.1 7.1 0 0 1 -2.85-2.21 8.54 8.54 0 0 1 -1.48-3.23 17 17 0 0 1 -.43-3.93v-1.67a16.51 16.51 0 0 1 .48-4.17 8 8 0 0 1 1.59-3.18 7.23 7.23 0 0 1 2.88-2 11.36 11.36 0 0 1 4.31-.75zm-.05 16.74a2.55 2.55 0 0 0 2.42-1.24 8.21 8.21 0 0 0 .7-3.88v-1.4a8.24 8.24 0 0 0 -.7-4.09 2.56 2.56 0 0 0 -2.32-1.08 2.72 2.72 0 0 0 -2.58 1.21 8.29 8.29 0 0 0 -.7 4v1.4a8.52 8.52 0 0 0 .67 3.85 2.58 2.58 0 0 0 2.51 1.25z" fill="#8fc899"/><path d="m724.64 604.35a11.18 11.18 0 0 1 4.36.75 7 7 0 0 1 2.83 2.1 8.34 8.34 0 0 1 1.51 3.2 16.89 16.89 0 0 1 .46 4.06v1.67a16.34 16.34 0 0 1 -.49 4.09 8.48 8.48 0 0 1 -1.56 3.23 7.19 7.19 0 0 1 -2.83 2.1 10.82 10.82 0 0 1 -4.28.75 11 11 0 0 1 -4.5-.81 7.11 7.11 0 0 1 -2.86-2.21 8.59 8.59 0 0 1 -1.48-3.23 17 17 0 0 1 -.43-3.93v-1.67a16.5 16.5 0 0 1 .49-4.17 8.05 8.05 0 0 1 1.59-3.18 7.25 7.25 0 0 1 2.88-2 11.36 11.36 0 0 1 4.31-.75zm-.06 16.74a2.54 2.54 0 0 0 2.42-1.24 8.16 8.16 0 0 0 .7-3.88v-1.4a8.19 8.19 0 0 0 -.7-4.09 2.55 2.55 0 0 0 -2.31-1.08 2.73 2.73 0 0 0 -2.58 1.21 8.34 8.34 0 0 0 -.7 4v1.39a8.51 8.51 0 0 0 .67 3.85 2.57 2.57 0 0 0 2.5 1.24zm20.84-16.31h6.73l-20.3 36.77h-6.73zm7.32 15.22a11.18 11.18 0 0 1 4.36.75 7 7 0 0 1 2.83 2.1 8.48 8.48 0 0 1 1.51 3.2 17.12 17.12 0 0 1 .46 4.06v1.67a16.34 16.34 0 0 1 -.49 4.09 8.41 8.41 0 0 1 -1.56 3.23 7.17 7.17 0 0 1 -2.83 2.1 10.81 10.81 0 0 1 -4.28.75 11 11 0 0 1 -4.5-.81 7.1 7.1 0 0 1 -2.85-2.21 8.54 8.54 0 0 1 -1.48-3.23 17 17 0 0 1 -.43-3.93v-1.67a16.51 16.51 0 0 1 .52-4.1 8 8 0 0 1 1.59-3.18 7.23 7.23 0 0 1 2.88-2 11.36 11.36 0 0 1 4.27-.82zm-.05 16.74a2.55 2.55 0 0 0 2.42-1.24 8.21 8.21 0 0 0 .7-3.88v-1.4a8.24 8.24 0 0 0 -.7-4.09 2.56 2.56 0 0 0 -2.32-1.08 2.72 2.72 0 0 0 -2.58 1.21 8.29 8.29 0 0 0 -.7 4v1.4a8.52 8.52 0 0 0 .67 3.85 2.58 2.58 0 0 0 2.5 1.25z" fill="#69a0ef"/><path d="m646.53 679.89v19.4s18.5.49 2.64-1.23-42.06-2.23-56.5-16.39-40.7-39.1-45.3-52.28 3.63-21.79 7.74-23.39 19.72-5.59 25.09 9.79 18.77 45.71 32.47 52.4z" fill="#ed4d4d"/><ellipse cx="612.17" cy="1042.84" fill="#5290e9" opacity=".1" rx="4.33" ry="13.99" transform="matrix(.13329432 -.9910765 .9910765 .13329432 -502.95 1510.57)"/><ellipse cx="556.71" cy="1025.43" fill="#5290e9" opacity=".1" rx="4.33" ry="13.99" transform="matrix(.13329432 -.9910765 .9910765 .13329432 -533.77 1440.52)"/><path d="m525.88 505.42s1.35-8.56 11.62-8.28a11.59 11.59 0 0 1 11.65 9.43l-19.42 3.88z" fill="#642f27"/><path d="m597.43 1030.73a29 29 0 0 0 1.17 7.72 14.61 14.61 0 0 1 6 1.62 35.69 35.69 0 0 1 6.23 3.87c3.93 3 7.63 3.71 14.55 3.52a28.54 28.54 0 0 0 12.11-3.16s1.57-4.13-8.06-5.48-17-10.06-23.26-13.63-7.17-1.19-7.17-1.19-1.57 2-1.57 6.73z" fill="#8a3443"/><path d="m598.6 1038.45.36 1.43s3 .12 9.06 4.41a28.62 28.62 0 0 0 29.47 1.29v-1.29a28.54 28.54 0 0 1 -12.11 3.16c-6.92.19-10.63-.52-14.55-3.52a35.69 35.69 0 0 0 -6.23-3.87 14.61 14.61 0 0 0 -6-1.61z"/><path d="m599 1024a18.33 18.33 0 0 0 5.35 7.85c4 3.35 5.21 7.28 14.27 9.7s10.77-2.71 10.77-2.71c-9.63-1.35-17-10.06-23.26-13.63s-7.13-1.21-7.13-1.21z" fill="#f5a560"/><path d="m541.44 1014a29 29 0 0 0 1.17 7.72 14.61 14.61 0 0 1 6 1.62 35.69 35.69 0 0 1 6.23 3.87c3.93 3 7.63 3.71 14.55 3.52a28.54 28.54 0 0 0 12.11-3.16s1.57-4.13-8.06-5.48-17-10.06-23.26-13.63-7.14-1.21-7.14-1.21-1.6 2.03-1.6 6.75z" fill="#8a3443"/><path d="m542.61 1021.72.36 1.43s3 .12 9.06 4.41a28.62 28.62 0 0 0 29.47 1.29v-1.29a28.54 28.54 0 0 1 -12.11 3.16c-6.92.19-10.63-.52-14.55-3.52a35.69 35.69 0 0 0 -6.23-3.87 14.61 14.61 0 0 0 -6-1.61z"/><path d="m543 1007.23a18.33 18.33 0 0 0 5.35 7.85c4 3.35 5.21 7.28 14.27 9.7s10.77-2.71 10.77-2.71c-9.63-1.35-17-10.06-23.26-13.63s-7.13-1.21-7.13-1.21z" fill="#f5a560"/><path d="m531.88 679.7c-10.82 3.54-10.82 27.3-10.82 27.3-5.34-4.09-10-32.46-10-32.46s-.21 6.66-3.81 16.44 0 20.6 0 20.6c-16.92-3.16-17-30.59-17-30.59-10.82 18.94-32.25 7.7-32.25 7.7s37.87-8.39 33.43-73.87-2.15-66.59 3.5-78.24 9.81-28.3 40.61-33.29 33.85 19.56 33.85 19.56l-30.24 53.69v91.84z" fill="#5f2f27"/><circle cx="499.93" cy="531.74" fill="#642f27" r="19.74"/><path d="m546.43 866.81s-14.48 28.19-12.26 66.48c2.1 36.19 9.8 52.65 7.73 73.5a3.11 3.11 0 0 0 3.21 3.47l3.64-.19a3.66 3.66 0 0 0 3.49-3.78c-.33-8.79.15-32.81 12.44-61.35l-2.22-82.13z" fill="#6ab0ca"/><path d="m519 564.14s-7.08-7.35-11.79-1 2.08 15.26 7.49 19.28 7.21 4.86 11.65 2.91 5.27 11.1 5.27 11.1l21.23 15.26 6-2.5-.28-7.49s-5.83-13-2.36-12.62 16.65 1.53 18.87-6.66-2.5-16.51 0-17.62 4.69-1.94.61-8.32-4.22-11.1-3.25-14.15.14-16.09-3.05-19.56-27.61-3.75-35.79 1.25 3.33 15.4-1.11 26.08-2.34 23.9-13.49 14.04z" fill="#f5a560"/><path d="m531.67 596.47s-16.92 20.25-17.2 39.68 21.09 60.21 11.93 74.91-19.14 35.15-19.14 35.15l47.74 39.2 35.22-28 5.27-18.87s-17.2-37.18-10.27-47.58 21.36-23.17 3.88-44.81a384.57 384.57 0 0 1 -30.52-44.39l.28 7.49z" fill="#ed4d4d"/><path d="m585.19 690.94c6.94-10.4 21.36-23.17 3.88-44.81a318.4 318.4 0 0 1 -27.31-39.07" fill="none" stroke="#d63846" stroke-linecap="round" stroke-miterlimit="10" stroke-width="1.91"/><path d="m557 671.61c-15.86-12.55-25.09-19-31.06-31.63s1.31-22 5.23-24.07 19-7.64 26 7.08.89 25.07 15.22 30.28z" fill="#d63846"/><path d="m534.66 617.86c3.92-2 19-7.64 26 7.08s23.5 43.47 37.83 48.67 36.85 7.61 47.38 7.27" fill="none" stroke="#d63846" stroke-linecap="round" stroke-miterlimit="10" stroke-width="1.91"/><path d="m507.26 746.21s-20.81 28.94 11.37 70.79 33.57 72.69 33 78.52-5 49.94 21.92 85.46c20.33 26.82 23.56 40.67 23.93 45.84a2.44 2.44 0 0 0 2.62 2.34 22.41 22.41 0 0 0 5.76-1.24 4.21 4.21 0 0 0 2.56-5.11c-4.11-14.14-20.58-72.78-19.61-101.2 1.11-32.46-8.6-57.71-1.66-74.36s17.2-60.48 8.32-108.76c.02.03-19.13 37.04-88.21 7.72z" fill="#6ab0ca"/><path d="m585.78 845.43a3.33 3.33 0 0 1 -3.31-3c-2.81-29.43-14.06-55.43-14.17-55.69a3.33 3.33 0 1 1 6.1-2.67c.48 1.09 11.79 27.19 14.7 57.71a3.33 3.33 0 0 1 -3 3.64z" fill="#6c98bd"/><path d="m531.93 780.53a2.95 2.95 0 0 1 -1.47-5.51c8.93-5.1 11.75-15.8 11.78-15.9a2.95 2.95 0 0 1 5.72 1.43c-.13.54-3.41 13.21-14.57 19.59a3 3 0 0 1 -1.46.39z" fill="#6c98bd"/><path d="m595.73 762h-.17a11.06 11.06 0 0 1 -8.6-1.48 11.76 11.76 0 0 1 -4.61-7.09 2.95 2.95 0 0 1 5.79-1.11c.24 1.16 1.41 4.83 6.31 3.9a2.95 2.95 0 0 1 1.28 5.75z" fill="#6c98bd"/><path d="m557.77 956.15a3 3 0 0 1 -2.76-2.33 177.77 177.77 0 0 1 -6-58.58c.21-2.59.12-7.78-3.13-22.83a3.39 3.39 0 0 1 2.11-4 2.9 2.9 0 0 1 3.5 2.43c3.41 15.78 3.57 21.53 3.27 25.08a169.66 169.66 0 0 0 5.8 55.94 3.45 3.45 0 0 1 -1.89 4.17 2.56 2.56 0 0 1 -.9.12z" fill="#6c98bd"/><path d="m541.92 546.52s2.88-6.57 6.11-7.73c2.82-1 10.17-1.46 12.92-1.58a1.5 1.5 0 0 1 1.42.84 3.55 3.55 0 0 1 .32 2.3s-10.89-.7-14.21.95a27 27 0 0 0 -6.56 5.22z" fill="#1d1609"/><path d="m671.61 687.84c8.18 1 5.62-4.17 17-6.4s10.85 3.63 7.35 3.69-7.75 1.3-6.92 3.51 11.37 1.65 15.61 4.51.92 11.2-4.35 12.58-25.57-4.15-25.57-4.15-.47-.6-4.84-.65l-14.32-1.8 1.6-12.79z" fill="#f5a560"/><path d="m661.19 700.52s-7.31-.05-23.26-.08-42.06 2.23-57.92-10.32-44.6-34.58-50.57-47.2 1.31-22 5.23-24.07 19-7.64 26 7.08 23.5 43.47 37.83 48.67 35.43 6.75 46 6.41c1.62-.05 23.47 3.45 23.47 3.45z" fill="#ed4d4d"/><path d="m1158.89 666.67c7 2.9 36-1.3 36-1.3a132.59 132.59 0 0 1 15.28.38c6 .61 47.43 3.82 59.2 4.13s20.25-8.86 23.53-10.69c7.49-4.2 22.61-27.5 28.72-37.35 1.76-2.67 2.75-4.35 2.75-4.35l-19.1-14.13c-1.15 2.14-2.52 4.43-4.05 6.72-10.09 14.9-27.27 31.47-34.45 35.29-8.25 4.43-53.78 1.6-65.23 1.6s-7-6.72-22.3-11.76-15.58 3.13-10.77 3.82 10.47 3.13 8.94 6-16 .31-22.3 3.51-3.25 15.3 3.78 18.13z" fill="#c07742"/><path d="m1301.19 610.06 20.39 11.76c1.76-2.67 2.75-4.35 2.75-4.35l-19.1-14.13c-1.14 2.14-2.51 4.43-4.04 6.72z" opacity=".1"/><path d="m1305.28 581.35h31.83a0 0 0 0 1 0 0v17.57a14.26 14.26 0 0 1 -14.26 14.26h-3.31a14.26 14.26 0 0 1 -14.26-14.26v-17.57a0 0 0 0 1 0 0z" transform="matrix(-.8660254 -.5 .5 -.8660254 2166.74 1775.1)"/><path d="m309 638s2.61 16.47 2.28 18.35-3.82 15.6-3.88 17.34.07 8-3.21 8-2.68-5.83-2.14-9a15.33 15.33 0 0 0 -.07-5.62s-3.88 8.9-4 12.05-.07 20.69-2.95 20.69-3.35-1.81-3.21-13.66-2-15.87 0-18.61 5-19.62 5.18-21.43.8-8.17.8-8.17z" fill="#f3b385"/><path d="m360.25 430.22h28.66v16.89h-28.66z" fill="#f3b385"/><path d="m341.77 388.13s-3.48-3.08-5.22 2.81 1.34 16.74 4.29 16.6 5.49-3.08 5.49-3.08z" fill="#f3b385"/><path d="m406.62 388.13s3.48-3.08 5.22 2.81-1.34 16.74-4.29 16.6-5.49-3.08-5.49-3.08z" fill="#f3b385"/><path d="m413.42 358.53c-.56 18-6.58 34.41-7 40.84s-5.61 36.14-31.86 39.29h-1.07c-26.25-3.15-31.47-32.87-31.88-39.29s-6.13-22.9-7-40.84c-.92-20.1 25-28.11 25-28.11-2.81-.41-1.07-3.62-1.07-3.62-3.62-.54-7.91-6.3-6.56-13.26s8.29-7.91 21.94-7.09 19.84 5.76 20.12 11.78-6.17 9.64-6.17 9.64c-.13 3.06-4.29 3.34-4.29 3.34s30.36 9.37 29.84 27.32z" fill="#d44801"/><path d="m388 327.87c-.13 3.06-4.29 3.34-4.29 3.34l-24-.79c-2.81-.41-1.07-3.62-1.07-3.62z"/><path d="m348.63 862.94 1.27 25.97h5.37 3.79 5.38l1.27-25.97z" fill="#f3b385"/><path d="m385.9 862.94 1.27 25.97h5.38 3.79 5.37l1.28-25.97z" fill="#f3b385"/><path d="m419.75 638s4.45 24.61-4.29 68-10 157.07-10 161.35h-22.09s-5-139.27-10.76-157.83c-5.71 18.6-3.61 157.87-3.61 157.87h-22.09c0-4.29-5.71-118.55-17.14-161.35s-4.29-68-4.29-68z" fill="#fe573c"/><path d="m441.22 345.05-17.81 6.16 19.33 66.11s-20.49 27.59-22.5 29.86-7 8.17-8.7 8.44c0 0-18.61-7.37-20.89-9.78s-6.16-3.21-15.94-2.95-11.38-.8-16.34 3.08-20 10.18-22.76 10.71-20.61 1.48-25.31 19.69-15 155.07-15 155.07l18.48 2.14 16.6-102.84s2.41 43.12-1.34 58.12-10.44 51.69-10.44 51.69 54.37 17.14 111.68-1.34c0 0-12.86-55.16-12.05-75.52s1.07-70.17 1.07-70.17l47.7-66.69s3.21-7 0-12.86-25.78-68.92-25.78-68.92z" fill="#0b7072"/><path d="m311.24 640.28-14.6-1.07.53-7.55 14.07 1.63z" fill="#dcf1ef"/><path d="m417.9 303.76s-3.88-1.27-3.35 5.83 4.08 13.93 4.22 18.48 4.75 15 4.75 15l11.85-4.22s-4.42-7.9-4-9.57 7.3-16.67 4.49-20.49-9.79-12.39-15.75-13.79-4.42 3.41-1.41 4.35 9.84 8.37 9.51 10.51-3.15 6.63-6.63 5 1.21-10.43-3.68-11.1z" fill="#f3b385"/><path d="m424.35 350.89-2.72-7.82 15.8-5.43 2.5 7.86z" fill="#dcf1ef"/><ellipse cx="357.17" cy="926.21" opacity=".2" rx="6.59" ry="1.53"/><ellipse cx="394.44" cy="926.21" opacity=".2" rx="6.59" ry="1.53"/><path d="m341 913.07c0 1 7.26 1.74 16.2 1.74s16.22-.77 16.22-1.74a7.47 7.47 0 0 1 -1.5-.73 61 61 0 0 0 -9.19-.9l-5.51-.92-5.48.92a61 61 0 0 0 -9.19.9z" fill="#2a2a2a"/><path d="m373.38 913.07h-32.38a7.45 7.45 0 0 0 1.5-.73c7.91-4.93 7.41-23.42 7.41-23.42h14.55s-.49 18.49 7.41 23.42a7.45 7.45 0 0 0 1.51.73z" fill="#cd0000"/><path d="m356.69 882.62s-7.39.36-6.78 6.3 1.54 7.51 3.37 9.08 1.39 28.21 1.39 28.21h5s-.44-26.64 1.39-28.21 2.77-3.15 3.37-9.08-6.78-6.3-6.78-6.3z"/><path d="m378.24 913.07c0 1 7.26 1.74 16.2 1.74s16.22-.77 16.22-1.74a7.47 7.47 0 0 1 -1.5-.73 61 61 0 0 0 -9.19-.9l-5.51-.92-5.48.92a61 61 0 0 0 -9.19.9z" fill="#2a2a2a"/><path d="m410.66 913.07h-32.42a7.45 7.45 0 0 0 1.5-.73c7.91-4.93 7.41-23.42 7.41-23.42h14.55s-.49 18.49 7.41 23.42a7.45 7.45 0 0 0 1.55.73z" fill="#cd0000"/><path d="m394 882.62s-7.39.36-6.78 6.3 1.54 7.51 3.37 9.08 1.41 28.21 1.41 28.21h5s-.44-26.64 1.39-28.21 2.77-3.15 3.37-9.08-6.78-6.3-6.78-6.3z"/><path d="m379.69 914.29h-103.68v52.31h103.68 103.67v-52.31z" fill="#5290e9"/><path d="m357.32 962.93h-81.31v2.04h81.31 81.31v-2.04z" fill="#231f20" opacity=".2"/><ellipse cx="350.95" cy="1019.18" fill="#5290e9" opacity=".1" rx="132.41" ry="3.48"/><path d="m334.96 966.6h-103.68v52.3h103.68 103.67v-52.3z" fill="#5290e9"/><ellipse cx="1636.8" cy="1034.58" opacity=".3" rx="10.46" ry="1.11"/><ellipse cx="1693.57" cy="1034.58" opacity=".3" rx="10.46" ry="1.11"/><path d="m1688.03 996.03v-15.79h11.08v15.79l.61 4.79 1.23 8.75v12.23l-3.35 7.73-6.49-.35-4.58-5.94v-17.23l.96-6.63z" fill="#b37552"/><path d="m1698.56 999.24a75.36 75.36 0 0 1 1 14.36c-.34 6.9 1.57 12.17-5.95 12.71-7.52-.55-5.61-5.81-5.95-12.71a75.36 75.36 0 0 1 1-14.36l-.66-3.24s-2.46 5.61-2.73 8.48-.34 20.85.34 23.58a8.09 8.09 0 0 0 15.86 0c.68-2.73.62-20.71.34-23.58s-2.73-8.48-2.73-8.48z"/><path d="m1631.26 996.03v-15.79h11.08v15.79l.61 4.79 1.23 8.75v12.23l-3.35 7.73-6.49-.35-4.58-5.94v-17.23l.96-6.63z" fill="#b37552"/><path d="m1641.79 999.24a75.36 75.36 0 0 1 1 14.36c-.34 6.9 1.57 12.17-5.95 12.71-7.52-.55-5.61-5.81-5.95-12.71a75.36 75.36 0 0 1 1-14.36l-.55-3.21s-2.46 5.61-2.73 8.48-.34 20.85.34 23.58a8.09 8.09 0 0 0 15.86 0c.68-2.73.62-20.71.34-23.58s-2.73-8.48-2.73-8.48z"/><path d="m1706.53 648.6s19.6 27.39 8.95 82.16-11.23 119.25-8.95 145.49-6.28 110.12-6.28 110.12h-14.25s-8.56-98.14-8-110.12-.57-44.5-3.42-65-8-86.72-8-86.72h-3.12s-5.13 66.18-8 86.72-4 53.06-3.42 65-8 110.12-8 110.12h-14.26s-8.56-83.87-6.28-110.12 1.71-90.72-8.95-145.49 8.95-82.16 8.95-82.16z" fill="#270f0f"/><path d="m1495.34 562.63s53.27 34.23 63.9 34.23 47.56-43 54.77-42.22c4.84.52 5.39 13.49 10 22 1.87 3.49 4.43 6.23 8.24 7.05a4.21 4.21 0 0 1 3.33 3c1.44 5.66 3.61 19.76-2.81 40.14a126.64 126.64 0 0 1 -9.22 21.73s26.25 4.56 41.08 4.56c19 0 41.92-4.56 41.92-4.56s-5.09-13-9.31-23.8c-2.26-5.8-4.31-11-5.23-13.47-2.67-7.05-2.67-22.07 2.67-26.45s7.6-21.43 7.6-21.43c6.85.07 9.13 44.46 10.27 54.34s2.67 103.7 2.67 103.7h18.62c0-8.88-1.14-95-1.89-109.41s-7.6-66.94-20.15-79.31c-3.06-3-8.15-4.91-14.13-6.07a101.56 101.56 0 0 0 -17.41-1.64 213.2 213.2 0 0 0 -28.19 1.44s-2.94-.37-7.42-.57a124.06 124.06 0 0 0 -16.66.34c-7.74.75-15.54 2.58-20.43 6.5-12.55 10.09-38 42.79-49.07 42.79s-56.3-26.63-56.3-26.63z" fill="#fec66f"/><path d="m1663.86 612.09 9.13 20.15 24.24-7.44c-2.26-5.8-4.31-11-5.23-13.47-2.67-7.05-2.67-22.07 2.67-26.45s7.6-21.43 7.6-21.43-6.94-23.62-4.61-36.74a101.56 101.56 0 0 0 -17.41-1.64z" fill="#962a27"/><path d="m1624 576.65c1.87 3.49 4.43 6.23 8.24 7.05a4.21 4.21 0 0 1 3.33 3c1.44 5.66 3.61 19.76-2.81 40.14l20.84 5.36 10.27-20.15-19.22-86.15a124.06 124.06 0 0 0 -16.66.34z" fill="#962a27"/><path d="m1501.4 550.52s-9.23-8.33-12.09-10.61-15.4-7-21.68 0 2.42 8.84 2.57 11.27.86 8.42 9.27 8.13a69 69 0 0 1 16.65 1.76z" fill="#b37552"/><path d="m1645.14 511c18.25 5 28.32-11.12 28.32-11.12v-4.65c-8.49 6.53-18.64 8.35-28.32.6a36.94 36.94 0 0 1 -5.6-5.66 51.26 51.26 0 0 1 -8.71-16c-.09 12.56 1.7 33.39 14.31 36.83z" fill="#2a2a2a"/><path d="m1645.14 495.87v15.13c18.25 5 28.32-11.12 28.32-11.12v-4.65c-8.46 6.57-18.64 8.39-28.32.64z" fill="#fec66f"/><path d="m1671.66 496.57s-3.34 9.55-13.2 9.33-11-4.69-11.5-8.69 22.48-9.03 24.7-.64z" opacity=".3"/><path d="m1673.46 495.27v4.65s9.58-9.37 10.46-16.8a29.78 29.78 0 0 1 -3.52 5.4 43.32 43.32 0 0 1 -6.94 6.75z" fill="#2a2a2a"/><path d="m1630.83 474.18a51.26 51.26 0 0 0 8.71 16 36.94 36.94 0 0 0 5.6 5.66c9.68 7.75 19.83 5.93 28.32-.6a43.32 43.32 0 0 0 6.92-6.75c8.53-10.28 9.53-27.92 9.57-35.12a10.3 10.3 0 0 0 -1.73-5.79c-19.44-29-36.42-19-47.84-11.12-11.75 8.11-12.3 15.94-12.3 15.94a54.48 54.48 0 0 0 2.75 21.78z" fill="#b37552"/><path d="m1687.79 450.17s-4.77-5.58-8.28-5.77c-3.07-.16-10.41 1.6-13.13 2.29a1.53 1.53 0 0 0 -1.14 1.24 3.63 3.63 0 0 0 .37 2.35s10.46-3.92 14.21-3.29a27.62 27.62 0 0 1 7.97 3.18z"/><path d="m1630.61 450.17s4.77-5.58 8.28-5.77c3.07-.16 10.41 1.6 13.13 2.29a1.53 1.53 0 0 1 1.14 1.24 3.63 3.63 0 0 1 -.37 2.35s-10.46-3.92-14.21-3.29a27.62 27.62 0 0 0 -7.97 3.18z"/><path d="m1640.46 436.5 2.38-11.19 22.42-1 3.64 5.43s-8.84-3.47-28.52 6.74" opacity=".3"/><path d="m1708.07 529.64s2 13.14-9.77 21.26-32.27 11.75-45.08 7.83-15.21-7.55-20.37-17.06-12.59-12-12.59-12z" opacity=".3"/><path d="m1612.85 526.21a2.41 2.41 0 0 0 2.4 2.43c4.21 0 13.59 1.35 22.34 12.19 11.75 14.54 24.33 15.1 41.68 12.59s24-12.31 28.81-23.77-.56-60.7-6.44-85-14.82-45.65-42.52-45.65-37.76 25.17-39.44 35-3.08 43.35-4.76 59.29c-1.14 10.82.81 15.46 2.19 17.32a2 2 0 0 1 -.11 2.39c-3.55 4.14-4.14 9.91-4.15 13.21zm18-52a54.48 54.48 0 0 1 -2.75-21.73s.55-7.84 12.3-15.94c11.42-7.89 28.4-17.89 47.84 11.12a10.3 10.3 0 0 1 1.73 5.79c0 6.05-.75 19.48-6 29.71-.87 7.43-10.46 16.8-10.46 16.8s-10.07 16.15-28.32 11.12c-12.66-3.52-14.45-24.35-14.36-36.9z"/><path d="m1730.42 721.5s-.19 11 .67 13.83 1.85 24-9.13 24-10.75-8.37-8.84-14.83 5.33-18.34 6.09-23z" fill="#b37552"/></svg>