<svg id="katman_1" data-name="katman 1" xmlns="http://www.w3.org/2000/svg" viewBox="0 0 318.66 33.96"><defs><style>.cls-1{fill:#06855f;}.cls-2{fill:#96c2cc;}.cls-3{fill:#064a5f;}.cls-4{fill:#053c49;}.cls-5{fill:none;stroke:#96c2cc;stroke-miterlimit:10;stroke-width:0.5px;}</style></defs><title>TrendFX Logo</title><path class="cls-1" d="M110.39,110.41H99.29v30.38h-3.6V110.41H84.6V107h25.79Z" transform="translate(-84.6 -106.87)"/><path class="cls-1" d="M123.59,116v3.6h-.43a7.7,7.7,0,0,0-6.34,3.12,11.25,11.25,0,0,0-2.3,7.11v10.95h-3.61v-24.4h3.61v5.91a9.1,9.1,0,0,1,8.83-6.29Z" transform="translate(-84.6 -106.87)"/><path class="cls-1" d="M137.57,137.52a7.26,7.26,0,0,0,7-4h3.94a11.66,11.66,0,0,1-4,5.28,11.4,11.4,0,0,1-7,2,11.62,11.62,0,0,1-8.84-3.6,12.3,12.3,0,0,1-3.31-8.79,12.46,12.46,0,0,1,3.17-8.79,12.41,12.41,0,0,1,17.48,0,12.5,12.5,0,0,1,3.17,8.79v1.44H129.07a8.64,8.64,0,0,0,2.64,5.47A8.08,8.08,0,0,0,137.57,137.52Zm-.29-18.25a7.92,7.92,0,0,0-5.57,2.07,8.51,8.51,0,0,0-2.6,5.14h16.33a8.5,8.5,0,0,0-2.59-5.14A7.94,7.94,0,0,0,137.28,119.27Z" transform="translate(-84.6 -106.87)"/><path class="cls-1" d="M157.21,116.39v3.75a12,12,0,0,1,3.17-2.93,7.72,7.72,0,0,1,4.27-1.2,11.35,11.35,0,0,1,4.13.67,8.44,8.44,0,0,1,3,2,10.37,10.37,0,0,1,3,7.73v14.36h-3.6V126.52a7.36,7.36,0,0,0-1.87-5.28,6.41,6.41,0,0,0-4.85-2,7.19,7.19,0,0,0-5.14,2,7.07,7.07,0,0,0-2.11,5.28v14.22H153.6v-24.4Z" transform="translate(-84.6 -106.87)"/><path class="cls-1" d="M199.51,136.56q-2.88,4.23-8.59,4.23a10.87,10.87,0,0,1-8.45-3.6,13.77,13.77,0,0,1,0-17.58,11.15,11.15,0,0,1,8.69-3.6,9.51,9.51,0,0,1,8.35,4.27V107h3.61v33.84h-3.61Zm-8.11,1a7.57,7.57,0,0,0,6.14-2.69,10.63,10.63,0,0,0,0-12.87,7.59,7.59,0,0,0-6.14-2.69,8,8,0,0,0-6.24,2.69,10.29,10.29,0,0,0,0,12.87A8,8,0,0,0,191.4,137.52Z" transform="translate(-84.6 -106.87)"/><polygon class="cls-2" points="163.29 10.49 155.46 0.08 152.7 0.08 161.78 12.48 163.29 10.49"/><polygon class="cls-2" points="166.63 10.53 174.53 0.08 177.29 0.08 168.15 12.52 166.63 10.53"/><polygon class="cls-3" points="129.05 4.69 148.93 4.69 148.93 0.11 124.33 0.11 124.33 33.79 129.05 33.79 129.05 19.64 146.76 19.64 146.76 15.01 129.05 15.01 129.05 4.69"/><polygon class="cls-3" points="167.63 16.34 164.99 12.89 162.4 16.34 148.93 33.78 154.84 33.78 164.99 20.31 175.19 33.78 181.09 33.78 167.63 16.34"/><path class="cls-4" d="M293.2,119.32h-1.37v-5.18L287.9,107h1.55l3.06,5.76,3.06-5.76h1.54l-3.91,7.13Z" transform="translate(-84.6 -106.87)"/><path class="cls-4" d="M300.81,119.32,304.19,107h3l3.38,12.31h-1.35l-.89-3.17h-5.27l-.89,3.17Zm4.41-11.13-1.87,6.74H308l-1.86-6.74Z" transform="translate(-84.6 -106.87)"/><path class="cls-4" d="M314.33,108.24V107h8.89v1.23h-3.75v11.08h-1.36V108.24Z" transform="translate(-84.6 -106.87)"/><path class="cls-4" d="M328.91,119.32V107h1.37v12.31Z" transform="translate(-84.6 -106.87)"/><path class="cls-4" d="M338.6,114.61v4.71h-1.37V107h4.55a4.2,4.2,0,0,1,3,.91,3.69,3.69,0,0,1,1,2.83c0,1.89-.75,3.08-2.26,3.57l2.37,5h-1.51l-2.23-4.71Zm3.2-1.21a2.59,2.59,0,0,0,0-5.18H338.6v5.18Z" transform="translate(-84.6 -106.87)"/><path class="cls-4" d="M352.13,119.32V107h1.37v12.31Z" transform="translate(-84.6 -106.87)"/><path class="cls-4" d="M360.46,119.32V107h2.47l3.48,10.41L369.9,107h2.47v12.31H371V108.47h-.25l-3.57,10.4h-1.53l-3.58-10.4h-.25v10.85Z" transform="translate(-84.6 -106.87)"/><path class="cls-4" d="M383.73,119.32h-4.39V107h4.39a3.88,3.88,0,0,1,4,2.39,9.69,9.69,0,0,1,.56,3.59q0,4.64-2.31,5.85A4.78,4.78,0,0,1,383.73,119.32Zm3.15-6.33c0-2.36-.53-3.83-1.58-4.41a3.17,3.17,0,0,0-1.57-.36h-3v9.89h3Q386.88,118.11,386.88,113Z" transform="translate(-84.6 -106.87)"/><path class="cls-4" d="M393.42,119.32,396.8,107h3l3.38,12.31h-1.35l-.89-3.17h-5.27l-.88,3.17Zm4.41-11.13L396,114.93h4.66l-1.87-6.74Z" transform="translate(-84.6 -106.87)"/><path class="cls-4" d="M293.63,140.66h-4.39V128.35h4.39a3.87,3.87,0,0,1,4,2.38,9.52,9.52,0,0,1,.57,3.6q0,4.63-2.31,5.85A4.84,4.84,0,0,1,293.63,140.66Zm3.15-6.33q0-3.54-1.59-4.41a3.13,3.13,0,0,0-1.56-.36h-3v9.89h3Q296.78,139.45,296.78,134.33Z" transform="translate(-84.6 -106.87)"/><path class="cls-4" d="M309.93,134.59a8.38,8.38,0,0,1-1.05,4.77c-.69,1-2,1.47-3.81,1.47s-3.11-.5-3.81-1.51a8.44,8.44,0,0,1-1.05-4.75,8.7,8.7,0,0,1,1.06-4.82c.72-1.05,2-1.58,3.79-1.58s3.08.53,3.8,1.57A8.65,8.65,0,0,1,309.93,134.59Zm-8.32,0a7.94,7.94,0,0,0,.71,3.88,3.79,3.79,0,0,0,5.49,0,7.85,7.85,0,0,0,.7-3.88,8.11,8.11,0,0,0-.73-4,3.6,3.6,0,0,0-5.45,0A8.15,8.15,0,0,0,301.61,134.56Z" transform="translate(-84.6 -106.87)"/><path class="cls-4" d="M317.31,135.59v-1.23h3.4v6a22,22,0,0,1-4,.42c-1.79,0-3-.51-3.73-1.54a11.5,11.5,0,0,1,0-9.56,4.12,4.12,0,0,1,3.69-1.56,17.34,17.34,0,0,1,3.44.36l.6.11,0,1.13a24.39,24.39,0,0,0-3.83-.37,2.94,2.94,0,0,0-2.75,1.18,11.23,11.23,0,0,0,0,7.86,2.92,2.92,0,0,0,2.74,1.19,14,14,0,0,0,2.54-.25v-3.79Zm-1.64-10.3a1.78,1.78,0,0,0,2.2,0,1.27,1.27,0,0,0,.46-1h1.24a2.23,2.23,0,0,1-.82,1.69,3,3,0,0,1-2,.64,2.93,2.93,0,0,1-2-.64,2.28,2.28,0,0,1-.81-1.69h1.23A1.24,1.24,0,0,0,315.67,125.29Z" transform="translate(-84.6 -106.87)"/><path class="cls-4" d="M324.76,135.94v4.72H323.4V128.35H328a4.19,4.19,0,0,1,2.94.91,3.66,3.66,0,0,1,1,2.83c0,1.89-.76,3.08-2.26,3.57l2.36,5h-1.51l-2.22-4.72Zm3.21-1.2c1.67,0,2.5-.87,2.5-2.59s-.84-2.59-2.52-2.59h-3.19v5.18Z" transform="translate(-84.6 -106.87)"/><path class="cls-4" d="M335.63,137q0,2.67,2.88,2.67a3.38,3.38,0,0,0,2.25-.64,2.5,2.5,0,0,0,.76-2v-8.61h1.35v8.57a3.71,3.71,0,0,1-1.1,3,4.85,4.85,0,0,1-3.22.92,4.77,4.77,0,0,1-3.21-.92,3.74,3.74,0,0,1-1.08-3v-8.57h1.37Z" transform="translate(-84.6 -106.87)"/><path class="cls-4" d="M357.34,140.66v-5.57h-6.26v5.57h-1.37V128.35h1.37v5.51h6.26v-5.51h1.35v12.31Z" transform="translate(-84.6 -106.87)"/><path class="cls-4" d="M360.63,140.66,364,128.35h3l3.38,12.31H369l-.89-3.17h-5.27l-.89,3.17ZM365,129.53l-1.87,6.73h4.66L366,129.53Z" transform="translate(-84.6 -106.87)"/><path class="cls-4" d="M372.32,140.66V128.35h2.47l3.48,10.4,3.49-10.4h2.47v12.31h-1.37V129.81h-.25L379,140.21h-1.53l-3.58-10.4h-.25v10.85Z" transform="translate(-84.6 -106.87)"/><path class="cls-4" d="M394,140.66h-6.78V128.35h1.37v11.08H394Z" transform="translate(-84.6 -106.87)"/><path class="cls-4" d="M395.77,140.66V128.35h7.49v1.21h-6.12v4.25h5.05V135h-5.05v4.45h6.12v1.21Z" transform="translate(-84.6 -106.87)"/><line class="cls-5" x1="192.07" x2="192.07" y2="33.92"/></svg>