<?xml version="1.0" encoding="utf-8"?>
<!-- Generator: Adobe Illustrator 16.0.0, SVG Export Plug-In . SVG Version: 6.00 Build 0)  -->
<!DOCTYPE svg PUBLIC "-//W3C//DTD SVG 1.1//EN" "http://www.w3.org/Graphics/SVG/1.1/DTD/svg11.dtd">
<svg version="1.1" id="katman_1" xmlns="http://www.w3.org/2000/svg" xmlns:xlink="http://www.w3.org/1999/xlink" x="0px" y="0px"
	 width="612px" height="65.404px" viewBox="0 363.389 612 65.404" enable-background="new 0 363.389 612 65.404"
	 xml:space="preserve">
<title>TrendFX Logo</title>
<path fill="#FFFFFF" d="M49.531,370.188H28.213v58.346h-6.914v-58.346H0v-6.549h49.531V370.188z"/>
<path fill="#FFFFFF" d="M74.882,380.924v6.914h-0.826c-4.79-0.093-9.328,2.14-12.176,5.992c-2.985,3.915-4.544,8.732-4.417,13.654
	v21.03h-6.933v-46.861h6.933v11.351c2.376-7.322,9.262-12.228,16.958-12.08H74.882z"/>
<path fill="#FFFFFF" d="M101.731,422.254c5.622,0.392,10.927-2.64,13.444-7.683h7.567c-1.526,4.052-4.195,7.574-7.682,10.141
	c-3.941,2.716-8.663,4.064-13.444,3.841c-6.388,0.233-12.57-2.283-16.978-6.913c-4.269-4.565-6.554-10.636-6.357-16.882
	c-0.237-6.204,1.946-12.257,6.088-16.882c9.292-9.218,24.279-9.218,33.571,0c4.136,4.629,6.317,10.679,6.088,16.882v2.766H85.407
	c0.363,4,2.164,7.732,5.07,10.505C93.508,420.892,97.564,422.415,101.731,422.254z M101.174,387.204
	c-3.947-0.114-7.783,1.312-10.698,3.976c-2.761,2.61-4.527,6.101-4.993,9.871h31.362c-0.459-3.769-2.219-7.259-4.974-9.871
	C108.955,388.52,105.12,387.095,101.174,387.204L101.174,387.204z"/>
<path fill="#FFFFFF" d="M139.451,381.673v7.202c1.672-2.229,3.735-4.135,6.088-5.627c2.449-1.554,5.301-2.355,8.201-2.305
	c2.701-0.066,5.391,0.37,7.932,1.287c2.175,0.851,4.14,2.161,5.762,3.841c3.901,3.932,5.989,9.312,5.761,14.846v27.579h-6.914
	v-27.368c0.186-3.722-1.105-7.366-3.592-10.141c-2.415-2.55-5.804-3.948-9.314-3.841c-3.67-0.083-7.223,1.299-9.872,3.841
	c-2.71,2.664-4.18,6.342-4.052,10.141v27.31h-6.933v-46.861L139.451,381.673z"/>
<path fill="#FFFFFF" d="M220.689,420.41c-3.688,5.416-9.187,8.124-16.498,8.124c-6.165,0.206-12.106-2.325-16.229-6.914
	c-8.119-9.79-8.119-23.973,0-33.763c4.271-4.653,10.379-7.184,16.689-6.914c6.416-0.275,12.504,2.838,16.037,8.201v-25.505h6.933
	v64.991h-6.933V420.41z M205.114,422.331c4.521,0.207,8.88-1.703,11.792-5.167c5.554-7.303,5.554-17.414,0-24.717
	c-2.917-3.459-7.273-5.368-11.792-5.167c-4.564-0.145-8.956,1.749-11.984,5.167c-5.789,7.223-5.789,17.494,0,24.717
	c3.043,3.39,7.433,5.254,11.984,5.09V422.331z"/>
<polygon fill="#FFFFFF" points="313.605,383.536 298.567,363.543 293.267,363.543 310.705,387.357 "/>
<polygon fill="#FFFFFF" points="320.02,383.612 335.192,363.543 340.493,363.543 322.939,387.435 "/>
<polygon fill="#FFFFFF" points="247.846,372.396 286.026,372.396 286.026,363.601 238.781,363.601 238.781,428.284 247.846,428.284 
	247.846,401.108 281.859,401.108 281.859,392.216 247.846,392.216 "/>
<polygon fill="#FFFFFF" points="321.94,394.771 316.87,388.145 311.896,394.771 286.026,428.265 297.377,428.265 316.87,402.396 
	336.46,428.265 347.791,428.265 "/>
<path fill="#FFFFFF" d="M400.625,387.3h-2.631v-9.948l-7.548-13.713h2.977l5.877,11.063l5.877-11.063h2.958l-7.51,13.694V387.3z"/>
<path fill="#FFFFFF" d="M415.24,387.3l6.491-23.661h5.762l6.492,23.642h-2.593l-1.71-6.088h-10.121l-1.709,6.088L415.24,387.3z
	 M423.71,365.924l-3.592,12.944h8.931l-3.572-12.944H423.71z"/>
<path fill="#FFFFFF" d="M441.206,366.021v-2.382h17.074v2.362h-7.202v21.28h-2.612v-21.26H441.206z"/>
<path fill="#FFFFFF" d="M469.208,387.3v-23.661h2.631v23.642L469.208,387.3z"/>
<path fill="#FFFFFF" d="M487.817,378.254v9.045h-2.631v-23.661h8.738c2.074-0.183,4.139,0.443,5.762,1.748
	c1.382,1.458,2.079,3.433,1.921,5.435c0,3.63-1.44,5.915-4.341,6.856l4.552,9.603h-2.9l-4.282-9.046L487.817,378.254z
	 M493.964,375.93c2.747,0,4.974-2.227,4.974-4.974s-2.227-4.974-4.974-4.974h-6.146v9.948H493.964z"/>
<path fill="#FFFFFF" d="M513.803,387.3v-23.661h2.631v23.642L513.803,387.3z"/>
<path fill="#FFFFFF" d="M529.801,387.3v-23.661h4.744l6.684,19.993l6.702-19.993h4.744v23.642h-2.632v-20.819h-0.479l-6.856,19.974
	h-2.938l-6.876-19.974h-0.479V387.3H529.801z"/>
<path fill="#FFFFFF" d="M574.492,387.3h-8.432v-23.661h8.432c3.296-0.349,6.428,1.522,7.682,4.59c0.79,2.21,1.155,4.549,1.076,6.895
	c0,5.941-1.479,9.686-4.438,11.235C577.471,387.02,575.987,387.343,574.492,387.3z M580.541,375.143c0-4.533-1.018-7.356-3.034-8.47
	c-0.929-0.486-1.967-0.724-3.015-0.691h-5.762v18.994h5.762c4.033,0,6.049-3.271,6.049-9.814V375.143z"/>
<path fill="#FFFFFF" d="M593.102,387.3l6.492-23.661h5.761l6.492,23.642h-2.593l-1.71-6.088h-10.121l-1.69,6.088L593.102,387.3z
	 M601.571,365.924l-3.515,12.944h8.95l-3.592-12.944H601.571z"/>
<path fill="#FFFFFF" d="M401.451,428.284h-8.432v-23.642h8.432c3.293-0.358,6.426,1.506,7.682,4.57
	c0.808,2.213,1.179,4.561,1.095,6.914c0,5.929-1.479,9.674-4.437,11.235C404.44,428.016,402.951,428.332,401.451,428.284z
	 M407.501,416.127c0-4.532-1.019-7.355-3.054-8.469c-0.922-0.486-1.954-0.725-2.996-0.691h-5.762v18.994h5.762
	C405.484,425.961,407.501,422.683,407.501,416.127z"/>
<path fill="#FFFFFF" d="M432.756,416.627c0.252,3.186-0.45,6.375-2.017,9.161c-1.325,1.92-3.841,2.823-7.317,2.823
	s-5.973-0.961-7.317-2.9c-1.553-2.777-2.254-5.95-2.017-9.123c-0.229-3.217,0.479-6.433,2.036-9.257
	c1.383-2.017,3.841-3.034,7.278-3.034c3.438,0,5.916,1.018,7.299,3.016C432.281,410.149,432.996,413.388,432.756,416.627z
	 M416.776,416.627c-0.179,2.559,0.29,5.122,1.364,7.451c2.771,2.912,7.379,3.025,10.29,0.253c0.087-0.082,0.171-0.166,0.254-0.253
	c1.074-2.329,1.537-4.894,1.344-7.451c0.192-2.639-0.29-5.282-1.401-7.683c-2.496-2.891-6.861-3.211-9.752-0.715
	c-0.256,0.221-0.495,0.459-0.716,0.715c-1.092,2.386-1.567,5.008-1.383,7.625V416.627z"/>
<path fill="#FFFFFF" d="M446.93,418.547v-2.362h6.529v11.523c-2.53,0.503-5.102,0.773-7.682,0.807c-3.438,0-5.762-0.979-7.164-2.957
	c-2.664-5.831-2.664-12.53,0-18.36c1.686-2.158,4.365-3.291,7.087-2.996c2.22,0.01,4.433,0.241,6.606,0.691l1.152,0.211v2.17
	c-2.429-0.43-4.889-0.668-7.355-0.71c-2.042-0.265-4.065,0.604-5.281,2.266c-1.818,4.868-1.818,10.229,0,15.096
	c1.202,1.669,3.222,2.546,5.262,2.285c1.638-0.011,3.271-0.172,4.879-0.479v-7.279L446.93,418.547z M443.779,398.766
	c1.24,0.975,2.985,0.975,4.226,0c0.571-0.473,0.896-1.18,0.884-1.921h2.381c-0.021,1.262-0.598,2.449-1.574,3.246
	c-1.091,0.859-2.455,1.296-3.842,1.229c-1.388,0.078-2.756-0.359-3.841-1.229c-0.96-0.809-1.526-1.991-1.556-3.246h2.362
	C442.816,397.602,443.173,398.314,443.779,398.766L443.779,398.766z"/>
<path fill="#FFFFFF" d="M461.237,419.22v9.064h-2.612v-23.642h8.835c2.036-0.155,4.054,0.47,5.646,1.748
	c1.388,1.453,2.087,3.432,1.921,5.435c0,3.63-1.46,5.915-4.341,6.856l4.532,9.603h-2.899l-4.264-9.064H461.237z M467.402,416.915
	c3.207,0,4.802-1.671,4.802-4.975s-1.613-4.974-4.84-4.974h-6.127v9.948H467.402z"/>
<path fill="#FFFFFF" d="M482.113,421.255c0,3.419,1.844,5.128,5.531,5.128c1.541,0.118,3.073-0.318,4.321-1.229
	c1.038-0.997,1.573-2.407,1.46-3.842v-16.535h2.593v16.459c0.201,2.141-0.575,4.258-2.112,5.762
	c-1.786,1.304-3.979,1.931-6.185,1.767c-2.201,0.173-4.39-0.454-6.165-1.767c-1.517-1.516-2.277-3.628-2.074-5.762v-16.459h2.632
	L482.113,421.255z"/>
<path fill="#FFFFFF" d="M523.809,428.284v-10.697h-12.022v10.697h-2.631v-23.642h2.631v10.582h12.022v-10.582h2.593v23.642H523.809z
	"/>
<path fill="#FFFFFF" d="M530.127,428.284l6.473-23.642h5.762l6.491,23.642h-2.65l-1.709-6.088h-10.121l-1.71,6.088H530.127z
	 M538.52,406.908l-3.591,12.926h8.95l-3.438-12.926H538.52z"/>
<path fill="#FFFFFF" d="M552.578,428.284v-23.642h4.744l6.684,19.974l6.702-19.974h4.744v23.642h-2.631v-20.838h-0.48l-6.934,19.974
	h-2.938l-6.875-19.974h-0.48v20.838H552.578z"/>
<path fill="#FFFFFF" d="M594.216,428.284h-13.021v-23.642h2.632v21.279h10.39V428.284z"/>
<path fill="#FFFFFF" d="M597.615,428.284v-23.642H612v2.324h-11.754v8.162h9.699v2.285h-9.699v8.547H612v2.323H597.615z"/>
<line fill="none" x1="368.879" y1="363.389" x2="368.879" y2="428.534"/>
</svg>
