<svg id="Capa_1" data-name="Capa 1" xmlns="http://www.w3.org/2000/svg" viewBox="0 0 585.7 612"><defs><style>.cls-1{fill:#445ea0;}.cls-2{fill:#c3ddf4;}.cls-3{fill:#aec1ed;}.cls-4{fill:#fff;}.cls-5{fill:#293d7c;}.cls-6{fill:#1a2b63;}.cls-7{fill:#37c47a;}.cls-8{fill:#02af8e;}.cls-9{fill:#0f9390;}.cls-10{fill:#1e99d6;}.cls-11{fill:#e26693;}.cls-12{fill:#ffca51;}.cls-13{fill:#eef6ff;}</style></defs><title>web-development-icon</title><circle class="cls-1" cx="292.85" cy="319.15" r="292.85"/><path class="cls-2" d="M58.57,151.56V455.77a6,6,0,0,0,6,6H166.26a150.79,150.79,0,0,1-11.78-58.57c0-83.55,68-151.52,151.52-151.52s151.52,68,151.52,151.52a150.79,150.79,0,0,1-11.78,58.57H547.45a6,6,0,0,0,6-6V151.56Z" transform="translate(-13.15 -90)"/><path class="cls-3" d="M82.29,455.77V151.56H58.57V455.77a6,6,0,0,0,6,6H88.26A6,6,0,0,1,82.29,455.77Z" transform="translate(-13.15 -90)"/><path class="cls-4" d="M306,555.89c-84.21,0-152.72-68.51-152.72-152.72S221.79,250.46,306,250.46,458.72,319,458.72,403.17,390.21,555.89,306,555.89Z" transform="translate(-13.15 -90)"/><path class="cls-5" d="M541.48,90h-471a12,12,0,0,0-11.95,12v50.8H553.43V102A12,12,0,0,0,541.48,90Z" transform="translate(-13.15 -90)"/><path class="cls-6" d="M94.24,90H70.52a12,12,0,0,0-11.95,12v50.8H82.29V102A12,12,0,0,1,94.24,90Z" transform="translate(-13.15 -90)"/><path class="cls-6" d="M541.48,90H451.63v62.75h101.8V102A12,12,0,0,0,541.48,90Z" transform="translate(-13.15 -90)"/><circle class="cls-7" cx="306" cy="403.1" r="121.5" transform="translate(-137.8 578.92) rotate(-84.48)"/><path class="cls-8" d="M208.21,403.1A121.52,121.52,0,0,1,317.86,282.17Q312,281.6,306,281.6a121.51,121.51,0,1,0,0,243c4,0,8-.2,11.86-.57A121.52,121.52,0,0,1,208.21,403.1Z" transform="translate(-13.15 -90)"/><path class="cls-9" d="M436.47,403.1c0-71.94-58.53-130.47-130.47-130.47S175.53,331.16,175.53,403.1c0,71.4,57.65,129.58,128.84,130.46a8.93,8.93,0,0,0,3.26,0C378.82,532.68,436.47,474.5,436.47,403.1Zm-242.66,9h41.72a227.46,227.46,0,0,0,6,45.36,176.9,176.9,0,0,0-28.55,9A111.83,111.83,0,0,1,193.81,412.07ZM213,339.78a177.9,177.9,0,0,0,28.55,9,227.46,227.46,0,0,0-6,45.36H193.81A111.83,111.83,0,0,1,213,339.78Zm205.18,54.36H376.47a227.46,227.46,0,0,0-6-45.36,177.9,177.9,0,0,0,28.55-9A111.83,111.83,0,0,1,418.19,394.14Zm-59.67,0H315V355.53a301.13,301.13,0,0,0,37.94-3.38A210.13,210.13,0,0,1,358.52,394.14ZM315,337.59V292.41c12.37,5,24.35,20,32.64,42.37A284.42,284.42,0,0,1,315,337.59ZM297,292.41v45.18a284.44,284.44,0,0,1-32.63-2.81C272.69,312.4,284.67,297.39,297,292.41Zm0,63.12v38.61H253.48a209.5,209.5,0,0,1,5.62-42A301.14,301.14,0,0,0,297,355.53Zm-43.55,56.54H297v38.61a301.14,301.14,0,0,0-37.93,3.38A209.4,209.4,0,0,1,253.48,412.07ZM297,468.62V513.8c-12.36-5-24.34-20-32.63-42.37A284.44,284.44,0,0,1,297,468.62ZM315,513.8V468.62a284.42,284.42,0,0,1,32.64,2.81C339.31,493.81,327.33,508.81,315,513.8Zm0-63.12V412.07h43.56a210.13,210.13,0,0,1-5.62,42A301.13,301.13,0,0,0,315,450.68Zm61.51-38.61h41.72A111.83,111.83,0,0,1,399,466.43a177.9,177.9,0,0,0-28.55-9A227.46,227.46,0,0,0,376.47,412.07Zm10.66-86.89a171,171,0,0,1-21.76,6.33,130.22,130.22,0,0,0-16.19-32.33A113.21,113.21,0,0,1,387.13,325.18Zm-124.31-26a129.88,129.88,0,0,0-16.19,32.33,171,171,0,0,1-21.76-6.33A113.11,113.11,0,0,1,262.82,299.18ZM224.87,481a171,171,0,0,1,21.76-6.33A129.88,129.88,0,0,0,262.82,507,113.11,113.11,0,0,1,224.87,481Zm124.31,26a130.22,130.22,0,0,0,16.19-32.33A171,171,0,0,1,387.13,481,113.11,113.11,0,0,1,349.18,507Z" transform="translate(-13.15 -90)"/><path class="cls-10" d="M202.85,648.34a9,9,0,0,1-8.37-5.76l-20.27-52.92A9,9,0,1,1,191,583.25l11.32,29.54,6.1-18.32a9,9,0,0,1,8.51-6.13h0a9,9,0,0,1,8.5,6.13l6.11,18.32,11.32-29.54a9,9,0,1,1,16.74,6.41l-20.27,52.92a9,9,0,0,1-16.88-.37l-5.52-16.56-5.52,16.56a9,9,0,0,1-8.31,6.13Z" transform="translate(-13.15 -90)"/><path class="cls-10" d="M292,648.34a9,9,0,0,1-8.37-5.76l-20.27-52.92a9,9,0,1,1,16.74-6.41l11.32,29.54,6.11-18.32a9,9,0,0,1,8.5-6.13h0a9,9,0,0,1,8.51,6.13l6.1,18.32,11.32-29.54a9,9,0,1,1,16.74,6.41L328.4,642.58a9,9,0,0,1-16.88-.37L306,625.65l-5.52,16.56a9,9,0,0,1-8.31,6.13Z" transform="translate(-13.15 -90)"/><path class="cls-10" d="M381.09,648.34a9,9,0,0,1-8.37-5.76l-20.27-52.92a9,9,0,1,1,16.74-6.41l11.32,29.54,6.11-18.32a9,9,0,0,1,8.5-6.13h0a9,9,0,0,1,8.51,6.13l6.1,18.32,11.32-29.54a9,9,0,1,1,16.74,6.41l-20.27,52.92a9,9,0,0,1-16.88-.37l-5.52-16.56-5.52,16.56a9,9,0,0,1-8.31,6.13Z" transform="translate(-13.15 -90)"/><path class="cls-11" d="M99.2,128.41a9,9,0,0,1,0-17.93,9,9,0,1,1,0,17.93Z" transform="translate(-13.15 -90)"/><path class="cls-12" d="M128.6,128.41a8.95,8.95,0,1,1,6.35-2.63A9,9,0,0,1,128.6,128.41Z" transform="translate(-13.15 -90)"/><path class="cls-7" d="M158,128.41a9,9,0,1,1,6.34-2.62A9,9,0,0,1,158,128.41Z" transform="translate(-13.15 -90)"/><path class="cls-4" d="M445.85,182a3.6,3.6,0,0,0-3.58-3.59H169.73a3.6,3.6,0,0,0-3.58,3.59v31.08a3.59,3.59,0,0,0,3.58,3.58H442.27a3.59,3.59,0,0,0,3.58-3.58Z" transform="translate(-13.15 -90)"/><path class="cls-13" d="M189.87,213.12V182a3.6,3.6,0,0,1,3.58-3.59H169.73a3.6,3.6,0,0,0-3.58,3.59v31.08a3.59,3.59,0,0,0,3.58,3.58h23.72A3.59,3.59,0,0,1,189.87,213.12Z" transform="translate(-13.15 -90)"/><path class="cls-1" d="M516.38,128.41H487.69a9,9,0,1,1,0-17.93h28.69a9,9,0,0,1,0,17.93Z" transform="translate(-13.15 -90)"/></svg>